<?xml version="1.0" standalone="no"?>
<!DOCTYPE svg PUBLIC "-//W3C//DTD SVG 1.1//EN" "http://www.w3.org/Graphics/SVG/1.1/DTD/svg11.dtd" >
<svg xmlns="http://www.w3.org/2000/svg">
<metadata>Generated by IcoMoon</metadata>
<defs>
<font id="icon-font" horiz-adv-x="1024">
<font-face units-per-em="1024" ascent="960" descent="-64" />
<missing-glyph horiz-adv-x="1024" />
<glyph unicode="&#x20;" horiz-adv-x="512" d="" />
<glyph unicode="&#xe900;" glyph-name="math_1-mlog-a-b" horiz-adv-x="2253" d="M14.336 376.32v34.816h346.112v-34.816h-346.112zM1777.664 103.936v632.832h106.496v-301.056l-8.192 12.288c8.192 30.72 26.624 55.296 53.248 73.728s59.392 26.624 96.256 26.624c38.912 0 71.68-8.192 100.352-26.624s51.2-45.056 67.584-77.824c16.384-34.816 24.576-73.728 24.576-118.784s-8.192-86.016-24.576-118.784c-16.384-34.816-38.912-61.44-67.584-79.872s-61.44-28.672-100.352-28.672c-36.864 0-67.584 8.192-96.256 26.624-26.624 18.432-45.056 43.008-53.248 73.728l10.24 16.384v-110.592h-108.544zM1998.848 179.712c34.816 0 63.488 12.288 81.92 36.864 20.48 24.576 28.672 61.44 28.672 106.496s-10.24 79.872-28.672 104.448c-20.48 24.576-47.104 36.864-81.92 36.864-36.864 0-65.536-12.288-83.968-36.864s-28.672-59.392-28.672-104.448c0-45.056 10.24-81.92 28.672-106.496s47.104-36.864 83.968-36.864zM161.792 747.008v0l-69.632-30.72-10.24 32.768 86.016 36.864h45.056v-317.44h-51.2v278.528zM374.784 169.472v575.488h98.304v-575.488h-98.304zM757.76 165.376c-40.96 0-75.776 8.192-106.496 24.576s-53.248 40.96-69.632 71.68c-16.384 30.72-24.576 67.584-24.576 108.544s8.192 77.824 24.576 108.544c16.384 30.72 38.912 55.296 69.632 71.68s65.536 24.576 106.496 24.576c40.96 0 75.776-8.192 104.448-24.576 30.72-16.384 53.248-40.96 69.632-71.68s24.576-67.584 24.576-108.544c0-43.008-8.192-77.824-24.576-108.544s-38.912-53.248-69.632-71.68c-28.672-16.384-63.488-24.576-104.448-24.576zM757.76 239.104c32.768 0 57.344 10.24 73.728 32.768 18.432 22.528 26.624 53.248 26.624 96.256s-8.192 75.776-26.624 96.256c-18.432 22.528-43.008 32.768-73.728 32.768-32.768 0-57.344-10.24-75.776-32.768s-26.624-53.248-26.624-96.256c0-43.008 8.192-75.776 26.624-96.256s43.008-32.768 75.776-32.768zM1222.656-4.608c-61.44 0-114.688 12.288-159.744 36.864l16.384 73.728c24.576-12.288 47.104-22.528 71.68-28.672 22.528-6.144 47.104-8.192 71.68-8.192 34.816 0 61.44 8.192 79.872 26.624 18.432 16.384 26.624 43.008 26.624 77.824v98.304h10.24c-6.144-16.384-16.384-32.768-28.672-45.056-12.288-14.336-28.672-24.576-47.104-32.768s-38.912-12.288-61.44-12.288c-34.816 0-65.536 8.192-92.16 24.576s-47.104 38.912-61.44 67.584c-14.336 28.672-22.528 63.488-22.528 104.448 0 38.912 8.192 73.728 22.528 104.448 14.336 28.672 34.816 53.248 61.44 69.632s57.344 24.576 92.16 24.576c34.816 0 63.488-8.192 88.064-24.576s40.96-38.912 51.2-67.584l-10.24-2.048v83.968h96.256v-380.928c0-61.44-16.384-108.544-51.2-139.264-38.912-34.816-88.064-51.2-153.6-51.2zM1222.656 257.536c32.768 0 57.344 10.24 75.776 32.768 18.432 20.48 26.624 51.2 26.624 88.064s-8.192 67.584-26.624 88.064c-18.432 20.48-43.008 32.768-75.776 32.768s-59.392-10.24-77.824-32.768c-18.432-20.48-28.672-51.2-28.672-88.064s10.24-67.584 28.672-88.064c20.48-22.528 45.056-32.768 77.824-32.768zM1568.768-20.992c-22.528 0-43.008 6.144-59.392 16.384-18.432 10.24-30.72 26.624-40.96 47.104s-14.336 45.056-14.336 71.68c0 28.672 4.096 51.2 14.336 73.728 10.24 20.48 24.576 36.864 40.96 49.152 18.432 12.288 36.864 18.432 59.392 18.432 20.48 0 38.912-4.096 53.248-14.336 16.384-10.24 26.624-22.528 32.768-38.912l-6.144-4.096v49.152h92.16v-264.192h-92.16v49.152h6.144c-6.144-16.384-16.384-28.672-32.768-38.912-14.336-10.24-32.768-14.336-53.248-14.336zM1597.44 48.64c16.384 0 28.672 6.144 38.912 16.384 8.192 12.288 14.336 28.672 14.336 49.152 0 22.528-4.096 38.912-14.336 51.2-8.192 12.288-22.528 16.384-38.912 16.384s-28.672-6.144-38.912-18.432-14.336-28.672-14.336-51.2c0-20.48 4.096-36.864 14.336-49.152 10.24-8.192 22.528-14.336 38.912-14.336zM30.72 114.176v133.12c0 8.192 0 18.432 0 26.624s-2.048 18.432-2.048 26.624h61.44l4.096-36.864-4.096 2.048c6.144 12.288 14.336 20.48 24.576 26.624 10.24 8.192 22.528 12.288 36.864 12.288 16.384 0 30.72-4.096 38.912-12.288 10.24-8.192 16.384-20.48 20.48-38.912l-8.192 10.24c6.144 12.288 14.336 22.528 26.624 28.672 12.288 8.192 24.576 10.24 38.912 10.24 22.528 0 36.864-6.144 47.104-20.48 10.24-12.288 16.384-32.768 16.384-59.392v-110.592h-65.536v110.592c0 10.24-2.048 18.432-4.096 24.576s-8.192 8.192-16.384 8.192c-10.24 0-16.384-4.096-22.528-10.24s-8.192-16.384-8.192-28.672v-100.352h-67.584v106.496c0 10.24-2.048 18.432-4.096 24.576-4.096 4.096-8.192 8.192-16.384 8.192-10.24 0-16.384-4.096-20.48-10.24s-8.192-16.384-8.192-28.672v-100.352h-67.584z" />
<glyph unicode="&#xe901;" glyph-name="math_axy" horiz-adv-x="1097" d="M330.971-31.086c-47.543 0-87.771 10.971-124.343 32.914s-62.171 53.029-82.286 95.086c-20.114 40.229-29.257 89.6-29.257 144.457s9.143 104.229 29.257 144.457c20.114 42.057 47.543 73.143 82.286 96.914s76.8 34.743 122.514 34.743c47.543 0 89.6-12.8 122.514-36.571s56.686-58.514 67.657-102.4l-12.8-9.143v133.486h84.114v-528.457h-84.114v137.143l12.8-5.486c-12.8-43.886-34.743-78.629-67.657-102.4-31.086-21.943-73.143-34.743-120.686-34.743zM347.429 40.229c51.2 0 91.429 18.286 120.686 53.029 27.429 34.743 42.057 85.943 42.057 151.771s-14.629 115.2-42.057 149.943c-29.257 34.743-69.486 51.2-120.686 51.2s-93.257-18.286-120.686-54.857c-29.257-36.571-43.886-85.943-43.886-151.771 0-64 14.629-113.371 43.886-149.943 29.257-32.914 69.486-49.371 120.686-49.371zM689.371 693.029l21.943-36.571c5.486-10.971 12.8-21.943 18.286-32.914v0c5.486 10.971 10.971 23.771 16.457 32.914l20.114 34.743h74.971l-73.143-104.229 73.143-115.2h-76.8l-21.943 40.229c-5.486 10.971-10.971 21.943-16.457 32.914h-1.829c-5.486-10.971-10.971-21.943-16.457-32.914l-20.114-40.229h-74.971l74.971 111.543-73.143 107.886h74.971zM972.8 943.543l27.429-87.771c3.657-10.971 7.314-23.771 9.143-32.914h1.829c1.829 9.143 5.486 23.771 7.314 32.914l21.943 87.771h60.343l-42.057-117.029c-25.6-71.314-42.057-98.743-62.171-117.029-20.114-16.457-40.229-21.943-53.029-23.771l-10.971 47.543c7.314 1.829 16.457 3.657 23.771 9.143 9.143 3.657 18.286 12.8 23.771 21.943 1.829 1.829 3.657 5.486 3.657 7.314s0 5.486-1.829 9.143l-65.829 162.743h56.686zM182.857 702.171c-64-89.6-111.543-206.629-111.543-371.2 0-160.914 49.371-277.943 111.543-369.371h-60.343c-56.686 74.971-117.029 192-117.029 369.371 0 179.2 60.343 294.4 117.029 371.2h60.343zM841.143-20.114c64 89.6 113.371 208.457 113.371 371.2s-49.371 279.771-113.371 369.371h62.171c58.514-74.971 118.857-190.171 118.857-369.371 0-177.371-60.343-292.571-118.857-371.2h-62.171z" />
<glyph unicode="&#xe902;" glyph-name="math_abx" horiz-adv-x="1266" d="M323.956 36.538c-42.822 0-80.058 9.309-113.571 29.789-31.651 20.48-57.716 48.407-74.473 83.782-18.618 37.236-26.065 80.058-26.065 128.465 0 50.269 9.309 93.091 27.927 130.327s42.822 65.164 76.335 85.644 70.749 31.651 111.709 31.651c44.684 0 81.92-11.171 113.571-31.651s52.131-52.131 63.302-91.229l-11.171-7.447v119.156h76.335v-472.902h-76.335v122.88l11.171-5.585c-11.171-39.098-31.651-70.749-63.302-91.229s-70.749-31.651-115.433-31.651zM340.713 99.84c48.407 0 83.782 14.895 109.847 46.545s39.098 76.335 39.098 134.051c0 57.716-13.033 102.4-39.098 134.051s-63.302 46.545-109.847 46.545c-48.407 0-85.644-16.756-111.709-48.407s-40.96-76.335-40.96-134.051c0-57.716 13.033-102.4 40.96-134.051 26.065-27.927 63.302-44.684 111.709-44.684zM1120.815 948.829l22.342-37.236c5.585-11.171 13.033-22.342 18.618-33.513v0c5.585 11.171 11.171 24.204 16.756 33.513l20.48 35.375h76.335l-74.473-106.124 74.473-117.295h-78.196l-22.342 40.96c-5.585 11.171-11.171 22.342-16.756 33.513h-1.862c-5.585-11.171-11.171-22.342-16.756-33.513l-22.342-39.098h-76.335l76.335 113.571-74.473 109.847h78.196zM195.491 734.72c-65.164-91.229-113.571-210.385-113.571-377.949 0-163.84 50.269-282.996 113.571-376.087h-61.44c-57.716 76.335-119.156 195.491-119.156 376.087 0 182.458 61.44 299.753 119.156 377.949h61.44zM921.6-0.698c65.164 91.229 115.433 212.247 115.433 377.949s-50.269 284.858-115.433 376.087h63.302c59.578-76.335 121.018-193.629 121.018-376.087 0-180.596-61.44-297.891-121.018-377.949h-63.302zM608.815 43.985v595.782h65.164v-292.305l-9.309 7.447c9.309 33.513 26.065 59.578 52.131 78.196s57.716 27.927 94.953 27.927c37.236 0 68.887-9.309 94.953-26.065 27.927-16.756 48.407-40.96 63.302-72.611s22.342-68.887 22.342-109.847c0-42.822-7.447-80.058-22.342-111.709s-37.236-57.716-65.164-74.473c-27.927-16.756-59.578-26.065-94.953-26.065-37.236 0-68.887 9.309-94.953 27.927s-42.822 44.684-52.131 78.196l9.309 9.309v-109.847h-63.302zM800.582 94.255c39.098 0 70.749 13.033 93.091 40.96s33.513 67.025 33.513 117.295c0 48.407-11.171 87.505-33.513 113.571s-53.993 40.96-93.091 40.96c-40.96 0-72.611-13.033-93.091-40.96-22.342-27.927-33.513-65.164-33.513-115.433s11.171-89.367 33.513-115.433c20.48-27.927 52.131-40.96 93.091-40.96z" />
<glyph unicode="&#xe903;" glyph-name="math_a-bx" horiz-adv-x="731" d="M102.4 426.057v24.869h413.989v-24.869h-413.989zM276.48 480.183c-30.72 0-58.514 7.314-81.92 23.406-23.406 14.629-40.96 36.571-54.126 65.829-13.166 27.794-19.017 61.44-19.017 99.474s5.851 71.68 19.017 100.937c13.166 29.257 30.72 51.2 54.126 67.291s49.737 23.406 80.457 23.406c32.183 0 58.514-8.777 81.92-24.869 21.943-16.091 38.034-39.497 45.349-70.217l-7.314-5.851v92.16h55.589v-365.714h-55.589v93.623l8.777-4.389c-8.777-29.257-23.406-54.126-46.811-70.217-21.943-16.091-48.274-24.869-80.457-24.869zM286.72 529.92c33.646 0 61.44 11.703 78.994 36.571 19.017 24.869 27.794 59.977 27.794 103.863 0 45.349-8.777 80.457-27.794 103.863-19.017 24.869-45.349 36.571-78.994 36.571s-61.44-13.166-80.457-38.034c-19.017-24.869-29.257-59.977-29.257-103.863 0-45.349 10.24-78.994 29.257-103.863 20.48-23.406 46.811-35.109 80.457-35.109zM627.566 948.297l14.629-24.869c4.389-7.314 8.777-14.629 11.703-21.943v0c4.389 7.314 7.314 14.629 11.703 21.943l13.166 23.406h49.737l-48.274-70.217 49.737-77.531h-51.2l-14.629 26.331c-4.389 7.314-7.314 14.629-11.703 21.943h-1.463c-2.926-7.314-7.314-14.629-11.703-21.943l-13.166-26.331h-49.737l49.737 74.606-48.274 71.68h49.737zM146.286 933.669c-51.2-119.954-89.234-276.48-89.234-495.909 0-215.040 39.497-370.103 89.234-491.52h-48.274c-45.349 100.937-93.623 256-93.623 491.52 0 238.446 48.274 393.509 93.623 495.909h48.274zM522.24 933.669c45.349-102.4 92.16-257.463 93.623-495.909 0-235.52-48.274-390.583-93.623-491.52h-49.737c51.2 121.417 89.234 276.48 89.234 491.52 0 219.429-38.034 375.954-89.234 495.909h49.737zM165.303-52.297v468.114h51.2v-229.669l-7.314 5.851c7.314 26.331 20.48 46.811 40.96 61.44s45.349 21.943 73.143 21.943c27.794 0 52.663-7.314 74.606-20.48 20.48-13.166 38.034-32.183 49.737-57.051s17.554-54.126 17.554-86.309c0-33.646-5.851-62.903-17.554-87.771s-29.257-45.349-49.737-58.514c-21.943-13.166-45.349-20.48-74.606-20.48s-52.663 7.314-73.143 21.943c-20.48 14.629-33.646 35.109-40.96 61.44l7.314 7.314v-86.309h-51.2zM314.514-12.8c30.72 0 55.589 10.24 71.68 32.183 17.554 21.943 26.331 52.663 26.331 92.16 0 38.034-8.777 68.754-26.331 89.234s-40.96 32.183-71.68 32.183c-32.183 0-55.589-10.24-73.143-32.183s-24.869-51.2-24.869-90.697c0-39.497 8.777-70.217 24.869-90.697 17.554-21.943 40.96-32.183 73.143-32.183z" />
<glyph unicode="&#xe904;" glyph-name="math_nrt-ak" horiz-adv-x="1229" d="M147.456 321.024v20.48h114.688v-20.48h-114.688zM235.52 335.36l28.672 6.144 57.344-313.344-28.672-6.144-57.344 313.344zM350.208 648.704v26.624h526.336v-26.624h-526.336zM348.16 673.28l28.672-2.048-57.344-651.264-28.672 2.048 57.344 651.264zM204.8 835.072c-71.68-100.352-124.928-231.424-124.928-415.744 0-180.224 55.296-311.296 124.928-413.696h-67.584c-63.488 83.968-131.072 215.040-131.072 413.696 0 200.704 67.584 329.728 131.072 415.744h67.584zM819.2 5.632c71.68 100.352 126.976 233.472 126.976 415.744s-55.296 313.344-126.976 413.696h69.632c65.536-83.968 133.12-212.992 133.12-413.696 0-198.656-67.584-327.68-133.12-415.744h-69.632zM106.496 501.248c0 22.528 0 43.008-2.048 59.392h51.2l2.048-26.624h2.048c8.192 12.288 26.624 30.72 57.344 30.72 38.912 0 67.584-24.576 67.584-79.872v-110.592h-59.392v104.448c0 24.576-8.192 40.96-28.672 40.96-16.384 0-26.624-10.24-28.672-22.528-2.048-4.096-4.096-10.24-4.096-16.384v-108.544h-57.344v129.024zM602.112 112.128c-34.816 0-65.536 8.192-92.16 26.624s-47.104 43.008-61.44 75.776c-14.336 32.768-22.528 71.68-22.528 114.688 0 45.056 8.192 81.92 22.528 116.736 14.336 32.768 34.816 59.392 61.44 77.824s57.344 28.672 92.16 28.672c36.864 0 67.584-10.24 92.16-28.672s43.008-47.104 51.2-81.92l-10.24-6.144v106.496h63.488v-421.888h-63.488v108.544l10.24-4.096c-8.192-34.816-26.624-63.488-51.2-81.92-26.624-22.528-55.296-30.72-92.16-30.72zM614.4 167.424c38.912 0 67.584 14.336 90.112 43.008 20.48 28.672 30.72 67.584 30.72 120.832 0 51.2-10.24 92.16-32.768 120.832-20.48 28.672-51.2 43.008-90.112 43.008s-69.632-14.336-90.112-43.008c-22.528-28.672-32.768-69.632-32.768-120.832s10.24-92.16 32.768-118.784c22.528-30.72 53.248-45.056 92.16-45.056zM1069.056 773.632v0c6.144 8.192 10.24 16.384 14.336 24.576l40.96 59.392h73.728l-71.68-79.872 79.872-116.736h-75.776l-47.104 81.92-16.384-18.432v-61.44h-61.44v286.72h61.44v-176.128z" />
<glyph unicode="&#xe905;" glyph-name="math_" d="M190.464 144.896v83.968h667.648v-83.968h-667.648zM557.056 798.208v-206.848h204.8v-88.064h-204.8v-208.896h-96.256v208.896h-204.8v88.064h204.8v206.848h96.256z" />
<glyph unicode="&#xe906;" glyph-name="math_0" horiz-adv-x="794" d="M775.314 441.731c0-317.649-140.016-495.282-386.612-495.282-217.339 0-363.624 171.363-367.804 480.653 0 313.469 160.914 486.922 386.612 486.922 234.057 2.090 367.804-175.543 367.804-472.294zM171.363 427.102c0-244.506 89.861-382.433 225.698-382.433 154.645 0 227.788 150.465 227.788 390.792 0 229.878-71.053 382.433-225.698 382.433-133.747 0-227.788-135.837-227.788-390.792z" />
<glyph unicode="&#xe907;" glyph-name="math_1" horiz-adv-x="430" d="M231.424 763.392h-4.096l-190.464-86.016-26.624 96.256 237.568 106.496h124.928v-919.552h-143.36v802.816z" />
<glyph unicode="&#xe908;" glyph-name="math_1-a" horiz-adv-x="788" d="M143.36 422.794v50.412h535.631v-50.412h-535.631zM379.668-45.095c-40.96 0-75.618 9.452-107.126 26.782-29.932 18.905-53.563 44.111-70.892 78.769s-25.206 74.043-25.206 119.729c0 45.686 7.877 86.646 25.206 119.729 17.329 34.658 40.96 61.44 70.892 80.345s66.166 28.357 105.551 28.357c40.96 0 77.194-9.452 105.551-29.932s48.837-47.262 58.289-85.071l-11.028-6.302v110.277h72.468v-437.957h-72.468v113.428l11.028-4.726c-11.028-36.234-29.932-64.591-58.289-85.071-26.782-18.905-63.015-28.357-103.975-28.357zM393.846 13.194c44.111 0 78.769 14.178 103.975 44.111 23.631 29.932 36.234 70.892 36.234 124.455s-12.603 96.098-36.234 124.455c-25.206 28.357-58.289 44.111-102.4 44.111s-80.345-14.178-103.975-44.111c-25.206-29.932-37.809-70.892-37.809-124.455s12.603-94.523 37.809-124.455c23.631-29.932 58.289-44.111 102.4-44.111zM367.065 879.655v0l-89.797-40.96-12.603 45.686 110.277 51.988h58.289v-442.683h-66.166v385.969z" />
<glyph unicode="&#xe909;" glyph-name="math_1-qn" horiz-adv-x="1638" d="M204.8 876.032c-71.68-100.352-124.928-231.424-124.928-415.744 0-180.224 55.296-311.296 124.928-413.696h-67.584c-63.488 83.968-131.072 215.040-131.072 413.696 0 200.704 67.584 329.728 131.072 415.744h67.584zM1413.12 46.592c71.68 100.352 126.976 233.472 126.976 415.744s-55.296 313.344-126.976 413.696h69.632c65.536-83.968 133.12-212.992 133.12-413.696 0-198.656-67.584-327.68-133.12-415.744h-69.632zM1251.328 802.304c0 22.528 0 40.96-2.048 57.344h49.152l2.048-24.576h2.048c8.192 12.288 26.624 28.672 55.296 28.672 36.864 0 65.536-24.576 65.536-77.824v-106.496h-55.296v100.352c0 22.528-8.192 38.912-28.672 38.912-16.384 0-24.576-10.24-28.672-20.48-2.048-4.096-2.048-8.192-2.048-14.336v-104.448h-55.296v122.88zM268.288 663.040v0l-100.352-53.248-14.336 59.392 124.928 67.584h65.536v-571.392h-73.728v497.664zM1144.832 353.792v0c-24.576-43.008-73.728-77.824-145.408-77.824-102.4 0-186.368 90.112-186.368 223.232 0 163.84 106.496 237.568 198.656 237.568 67.584 0 114.688-32.768 135.168-75.776h2.048l2.048 65.536h75.776c-2.048-36.864-2.048-75.776-2.048-120.832v-499.712h-79.872v247.808zM1144.832 548.352c0 10.24 0 24.576-4.096 32.768-12.288 49.152-55.296 90.112-114.688 90.112-81.92 0-133.12-69.632-133.12-169.984 0-88.064 40.96-163.84 129.024-163.84 51.2 0 96.256 32.768 114.688 88.064 4.096 10.24 6.144 26.624 6.144 38.912v83.968zM757.76 472.576v-51.2h-358.4v51.2h358.4z" />
<glyph unicode="&#xe90a;" glyph-name="math_2" horiz-adv-x="573" d="M16.384-33.28v77.824l88.064 96.256c212.992 225.28 307.2 346.112 309.248 487.424 0 94.208-40.96 182.272-163.84 182.272-75.776 0-137.216-43.008-176.128-77.824l-36.864 86.016c57.344 55.296 139.264 94.208 235.52 94.208 178.176 0 253.952-137.216 253.952-270.336 0-172.032-110.592-311.296-286.72-499.712l-65.536-69.632v-2.048h372.736v-104.448h-530.432z" />
<glyph unicode="&#xe90b;" glyph-name="math_100" horiz-adv-x="2458" d="M907.264 364.032c0-256-104.448-397.312-288.768-397.312-161.792 0-272.384 137.216-274.432 387.072 0 251.904 120.832 391.168 288.768 391.168 174.080 0 274.432-141.312 274.432-380.928zM454.656 351.744c0-196.608 65.536-307.2 167.936-307.2 114.688 0 169.984 120.832 169.984 313.344 0 184.32-53.248 307.2-167.936 307.2-98.304 2.048-169.984-106.496-169.984-313.344zM1521.664 364.032c0-256-104.448-397.312-288.768-397.312-161.792 0-272.384 137.216-274.432 387.072 0 251.904 120.832 391.168 288.768 391.168 174.080 0 274.432-141.312 274.432-380.928zM1069.056 351.744c0-196.608 65.536-307.2 167.936-307.2 114.688 0 169.984 120.832 169.984 313.344 0 184.32-53.248 307.2-167.936 307.2-98.304 2.048-169.984-106.496-169.984-313.344zM196.608 652.8h-2.048l-157.696-71.68-24.576 79.872 198.656 90.112h104.448v-765.952h-118.784v667.648zM1951.744 503.296c0-149.504-90.112-227.328-188.416-227.328-102.4 0-184.32 81.92-184.32 217.088 0 126.976 73.728 225.28 190.464 225.28 116.736-2.048 182.272-92.16 182.272-215.040zM1697.792 495.104c0-75.776 24.576-129.024 69.632-129.024s67.584 49.152 67.584 129.024c0 73.728-18.432 129.024-67.584 129.024s-69.632-57.344-69.632-129.024zM1771.52-25.088l389.12 741.376h86.016l-389.12-741.376h-86.016zM2439.168 204.288c0-149.504-90.112-227.328-188.416-227.328-102.4 0-184.32 81.92-184.32 217.088 0 126.976 73.728 225.28 190.464 225.28 116.736-2.048 182.272-92.16 182.272-215.040zM2185.216 198.144c-2.048-75.776 22.528-129.024 69.632-129.024 45.056 0 67.584 49.152 67.584 129.024 0 73.728-18.432 129.024-67.584 129.024s-69.632-57.344-69.632-129.024z" />
<glyph unicode="&#xe90c;" glyph-name="math_a0" d="M346.298-60.276c-63.302 0-119.156 14.895-165.702 44.684-48.407 29.789-83.782 72.611-109.847 126.604-26.065 55.855-39.098 119.156-39.098 193.629s13.033 139.636 39.098 195.491c26.065 55.855 63.302 98.676 111.709 130.327s102.4 46.545 163.84 46.545c65.164 0 119.156-16.756 165.702-48.407 44.684-31.651 76.335-78.196 91.229-137.775l-16.756-11.171v178.735h113.571v-709.353h-113.571v184.32l16.756-9.309c-16.756-59.578-46.545-104.262-91.229-137.775-46.545-31.651-102.4-46.545-165.702-46.545zM368.64 34.676c68.887 0 122.88 24.204 160.116 70.749 37.236 48.407 55.855 115.433 55.855 202.938s-18.618 154.531-57.716 201.076c-37.236 46.545-91.229 70.749-160.116 70.749s-124.742-24.204-163.84-72.611c-39.098-48.407-57.716-115.433-57.716-202.938s18.618-152.669 57.716-201.076c40.96-46.545 94.953-68.887 165.702-68.887zM1012.829 770.095c0-106.124-52.131-176.873-158.255-176.873-107.985 0-154.531 80.058-154.531 175.011 0 98.676 50.269 176.873 158.255 176.873 109.847-1.862 154.531-81.92 154.531-175.011zM796.858 768.233c0-78.196 22.342-115.433 59.578-115.433s57.716 39.098 57.716 117.295c0 76.335-20.48 115.433-57.716 115.433-35.375-1.862-59.578-39.098-59.578-117.295z" />
<glyph unicode="&#xe90d;" glyph-name="math_a-1" d="M660.945 730.996v44.684h186.182v-44.684h-186.182zM327.68-60.276c-63.302 0-119.156 14.895-165.702 44.684-48.407 29.789-83.782 72.611-109.847 126.604-26.065 55.855-39.098 119.156-39.098 193.629s13.033 139.636 39.098 195.491c26.065 55.855 63.302 98.676 111.709 130.327s102.4 46.545 163.84 46.545c65.164 0 119.156-16.756 165.702-48.407 44.684-31.651 76.335-78.196 91.229-137.775l-16.756-11.171v178.735h113.571v-709.353h-113.571v184.32l16.756-9.309c-16.756-59.578-46.545-104.262-91.229-137.775-46.545-31.651-102.4-46.545-165.702-46.545zM350.022 34.676c68.887 0 122.88 24.204 160.116 70.749 37.236 48.407 55.855 115.433 55.855 202.938s-18.618 154.531-57.716 201.076c-37.236 46.545-91.229 70.749-160.116 70.749s-124.742-24.204-163.84-72.611c-39.098-48.407-57.716-115.433-57.716-202.938s18.618-152.669 57.716-201.076c40.96-46.545 94.953-68.887 165.702-68.887zM923.462 874.356v0l-61.44-29.789-13.033 55.855 83.782 40.96h61.44l7.447-316.509-72.611-1.862-5.585 251.345z" />
<glyph unicode="&#xe90e;" glyph-name="math_alog-a-b" horiz-adv-x="1638" d="M1366.016 386.56v387.072h65.536v-184.32l-6.144 8.192c6.144 18.432 16.384 34.816 32.768 45.056s36.864 16.384 59.392 16.384c22.528 0 43.008-6.144 61.44-16.384s30.72-26.624 40.96-47.104c10.24-20.48 14.336-45.056 14.336-71.68 0-28.672-4.096-51.2-14.336-73.728-10.24-20.48-24.576-36.864-40.96-49.152-18.432-12.288-38.912-16.384-61.44-16.384s-40.96 6.144-59.392 16.384-26.624 26.624-32.768 45.056l6.144 10.24v-69.632h-65.536zM1501.184 433.664c22.528 0 38.912 8.192 51.2 22.528 12.288 16.384 18.432 36.864 18.432 65.536 0 26.624-6.144 49.152-18.432 63.488s-28.672 22.528-51.2 22.528c-22.528 0-38.912-8.192-51.2-22.528s-18.432-36.864-18.432-63.488c0-28.672 6.144-49.152 18.432-65.536 10.24-14.336 28.672-22.528 51.2-22.528zM442.368 396.8v411.648h69.632v-411.648h-69.632zM714.752 392.704c-28.672 0-55.296 6.144-75.776 18.432s-38.912 28.672-49.152 51.2c-12.288 20.48-16.384 47.104-16.384 75.776 0 30.72 6.144 55.296 16.384 77.824 12.288 22.528 28.672 38.912 49.152 51.2s47.104 18.432 75.776 18.432c28.672 0 53.248-6.144 75.776-18.432 20.48-12.288 38.912-28.672 49.152-51.2 12.288-22.528 18.432-49.152 18.432-77.824 0-30.72-6.144-55.296-18.432-77.824s-28.672-38.912-49.152-51.2c-20.48-10.24-45.056-16.384-75.776-16.384zM714.752 445.952c22.528 0 40.96 8.192 53.248 22.528s18.432 38.912 18.432 69.632c0 30.72-6.144 53.248-18.432 69.632s-30.72 22.528-53.248 22.528c-22.528 0-40.96-8.192-55.296-22.528-12.288-16.384-18.432-38.912-18.432-69.632s6.144-53.248 18.432-69.632c14.336-14.336 32.768-22.528 55.296-22.528zM1048.576 271.872c-43.008 0-81.92 8.192-114.688 26.624l10.24 53.248c16.384-8.192 34.816-16.384 51.2-20.48s34.816-6.144 51.2-6.144c24.576 0 43.008 6.144 57.344 18.432 12.288 12.288 18.432 30.72 18.432 55.296v69.632h6.144c-4.096-12.288-12.288-22.528-20.48-32.768-10.24-10.24-20.48-18.432-34.816-22.528-14.336-6.144-28.672-8.192-45.056-8.192-24.576 0-47.104 6.144-65.536 16.384-18.432 12.288-34.816 28.672-45.056 49.152s-16.384 45.056-16.384 73.728c0 28.672 6.144 53.248 16.384 73.728s24.576 36.864 45.056 49.152c18.432 12.288 40.96 18.432 65.536 18.432s45.056-6.144 63.488-18.432c18.432-12.288 30.72-28.672 36.864-47.104l-6.144-2.048v59.392h69.632v-272.384c0-43.008-12.288-77.824-36.864-100.352s-59.392-32.768-106.496-32.768zM1048.576 458.24c22.528 0 40.96 8.192 53.248 22.528s20.48 36.864 20.48 63.488-6.144 47.104-20.48 63.488c-12.288 14.336-30.72 22.528-53.248 22.528s-40.96-8.192-55.296-22.528c-14.336-14.336-20.48-36.864-20.48-63.488s6.144-47.104 20.48-63.488c12.288-14.336 30.72-22.528 55.296-22.528zM1261.568 177.664c-16.384 0-28.672 4.096-40.96 12.288s-22.528 18.432-28.672 32.768c-6.144 14.336-10.24 30.72-10.24 49.152s4.096 36.864 10.24 51.2 16.384 26.624 28.672 34.816c12.288 8.192 26.624 12.288 40.96 12.288s26.624-4.096 36.864-10.24c10.24-6.144 18.432-16.384 22.528-26.624l-4.096-2.048v34.816h63.488v-184.32h-63.488v32.768h4.096c-4.096-12.288-12.288-20.48-22.528-26.624s-22.528-10.24-36.864-10.24zM1282.048 226.816c12.288 0 20.48 4.096 26.624 12.288s10.24 18.432 10.24 34.816c0 14.336-4.096 26.624-10.24 34.816s-14.336 12.288-26.624 12.288c-12.288 0-20.48-4.096-26.624-12.288s-10.24-20.48-10.24-34.816c0-14.336 4.096-26.624 10.24-32.768 6.144-10.24 14.336-14.336 26.624-14.336zM192.512-4.608c-36.864 0-71.68 8.192-100.352 26.624s-51.2 45.056-67.584 77.824-22.528 71.68-22.528 116.736c0 45.056 8.192 86.016 24.576 118.784 16.384 34.816 38.912 61.44 67.584 79.872s61.44 28.672 100.352 28.672c36.864 0 67.584-8.192 96.256-26.624 26.624-18.432 45.056-43.008 55.296-75.776l-10.24-6.144v96.256h104.448v-432.128h-104.448v100.352l10.24-4.096c-10.24-32.768-28.672-57.344-55.296-73.728-30.72-18.432-61.44-26.624-98.304-26.624zM221.184 77.312c34.816 0 63.488 12.288 81.92 36.864s28.672 59.392 28.672 104.448c0 47.104-10.24 81.92-28.672 106.496s-47.104 36.864-81.92 36.864c-36.864 0-63.488-12.288-83.968-36.864s-30.72-61.44-30.72-106.496c0-45.056 10.24-79.872 30.72-102.4 20.48-26.624 49.152-38.912 83.968-38.912z" />
<glyph unicode="&#xe90f;" glyph-name="math_an-k" d="M720.524 621.149v50.269h275.549v-50.269h-275.549zM327.68-60.276c-63.302 0-119.156 14.895-165.702 44.684-48.407 29.789-83.782 72.611-109.847 126.604-26.065 55.855-39.098 119.156-39.098 193.629s13.033 139.636 39.098 195.491c26.065 55.855 63.302 98.676 111.709 130.327s102.4 46.545 163.84 46.545c65.164 0 119.156-16.756 165.702-48.407 44.684-31.651 76.335-78.196 91.229-137.775l-16.756-11.171v178.735h113.571v-709.353h-113.571v184.32l16.756-9.309c-16.756-59.578-46.545-104.262-91.229-137.775-46.545-31.651-102.4-46.545-165.702-46.545zM350.022 34.676c68.887 0 122.88 24.204 160.116 70.749 37.236 48.407 55.855 115.433 55.855 202.938s-18.618 154.531-57.716 201.076c-37.236 46.545-91.229 70.749-160.116 70.749s-124.742-24.204-163.84-72.611c-39.098-48.407-57.716-115.433-57.716-202.938s18.618-152.669 57.716-201.076c40.96-46.545 94.953-68.887 165.702-68.887zM750.313 866.909c0 27.927 0 52.131-1.862 72.611h61.44l3.724-31.651h1.862c9.309 14.895 31.651 35.375 70.749 35.375 46.545 0 80.058-29.789 80.058-96.815v-134.051h-72.611v124.742c0 29.789-9.309 48.407-35.375 48.407-18.618 0-31.651-13.033-35.375-26.065-1.862-3.724-1.862-11.171-1.862-16.756v-130.327h-70.749v154.531zM837.818 433.105v0c5.585 7.447 9.309 14.895 14.895 22.342l39.098 57.716h72.611l-70.749-76.335 78.196-113.571h-72.611l-46.545 78.196-14.895-18.618v-59.578h-59.578v279.273h59.578v-169.425z" />
<glyph unicode="&#xe910;" glyph-name="math_ax" d="M318.371-60.276c-63.302 0-119.156 14.895-165.702 44.684-48.407 29.789-83.782 72.611-109.847 126.604-26.065 55.855-39.098 119.156-39.098 193.629s13.033 139.636 39.098 195.491c26.065 55.855 63.302 98.676 111.709 130.327s102.4 46.545 163.84 46.545c65.164 0 119.156-16.756 165.702-48.407 44.684-31.651 76.335-78.196 91.229-137.775l-16.756-11.171v178.735h111.709v-709.353h-113.571v184.32l16.756-9.309c-16.756-59.578-46.545-104.262-91.229-137.775-44.684-31.651-100.538-46.545-163.84-46.545zM340.713 34.676c68.887 0 122.88 24.204 160.116 70.749 37.236 48.407 55.855 115.433 55.855 202.938s-18.618 154.531-57.716 201.076c-37.236 46.545-91.229 70.749-160.116 70.749s-124.742-24.204-163.84-72.611c-39.098-48.407-57.716-115.433-57.716-202.938s18.618-152.669 57.716-201.076c40.96-46.545 94.953-68.887 165.702-68.887zM785.687 922.764l29.789-50.269c9.309-14.895 16.756-31.651 24.204-44.684h1.862c7.447 16.756 14.895 31.651 24.204 46.545l26.065 48.407h102.4l-100.538-143.36 100.538-158.255h-106.124l-29.789 53.993c-9.309 14.895-16.756 29.789-24.204 46.545h-1.862c-7.447-16.756-14.895-31.651-22.342-46.545l-27.927-53.993h-102.4l102.4 152.669-100.538 148.945h104.262z" />
<glyph unicode="&#xe911;" glyph-name="math_axy1" horiz-adv-x="1307" d="M962.996 796.596h-71.898v30.502h71.898v76.255h28.323v-76.255h71.898v-28.323h-71.898v-78.434h-28.323v76.255zM324.63-50.928c-63.183 0-117.651 15.251-163.404 43.574-47.932 28.323-82.791 71.898-108.936 126.366s-39.217 117.651-39.217 191.728c0 74.077 13.072 137.26 39.217 193.906 26.145 54.468 63.183 98.043 108.936 128.545 47.932 30.502 102.4 45.753 163.404 45.753 65.362 0 119.83-15.251 163.404-47.932 45.753-32.681 74.077-76.255 91.506-135.081l-17.43-10.894v176.477h111.115v-703.728h-111.115v180.834l17.43-8.715c-15.251-58.826-45.753-104.579-91.506-135.081s-100.221-45.753-163.404-45.753zM346.417 42.757c69.719 0 122.009 23.966 159.047 69.719 37.038 47.932 56.647 113.294 56.647 200.443s-19.609 152.511-56.647 200.443c-37.038 45.753-91.506 69.719-159.047 69.719-69.719 0-122.009-23.966-161.226-71.898s-58.826-115.472-58.826-200.443c0-84.97 19.609-152.511 58.826-198.264s93.685-69.719 161.226-69.719zM712.443 946.928l26.145-43.574c6.536-13.072 15.251-26.145 21.787-39.217v0c6.536 13.072 13.072 28.323 19.609 39.217l23.966 41.396h89.328l-87.149-124.187 87.149-137.26h-91.506l-26.145 47.932c-6.536 13.072-13.072 26.145-19.609 39.217h-2.179c-6.536-13.072-13.072-26.145-19.609-39.217l-23.966-47.932h-89.328l89.328 132.902-87.149 128.545h89.328zM1159.081 962.179l32.681-104.579c4.357-13.072 8.715-28.323 10.894-39.217h2.179c2.179 10.894 6.536 28.323 8.715 39.217l26.145 104.579h71.898l-50.111-139.438c-30.502-84.97-50.111-117.651-74.077-139.438-23.966-19.609-47.932-26.145-63.183-28.323l-13.072 56.647c8.715 2.179 19.609 4.357 28.323 10.894 10.894 4.357 21.787 15.251 28.323 26.145 2.179 2.179 4.357 6.536 4.357 8.715s0 6.536-2.179 10.894l-78.434 193.906h67.54z" />
<glyph unicode="&#xe912;" glyph-name="math_axy2" d="M268.102-15.593c-53.993 0-100.538 13.033-139.636 37.236-40.96 24.204-70.749 61.44-93.091 107.985s-33.513 100.538-33.513 163.84c0 63.302 11.171 117.295 33.513 165.702 22.342 46.545 53.993 83.782 93.091 109.847 40.96 26.065 87.505 39.098 139.636 39.098 55.855 0 102.4-13.033 139.636-40.96 39.098-27.927 63.302-65.164 78.196-115.433l-14.895-9.309v150.807h94.953v-601.367h-94.953v154.531l14.895-7.447c-13.033-50.269-39.098-89.367-78.196-115.433s-85.644-39.098-139.636-39.098zM286.72 64.465c59.578 0 104.262 20.48 135.913 59.578 31.651 40.96 48.407 96.815 48.407 171.287s-16.756 130.327-48.407 171.287c-31.651 39.098-78.196 59.578-135.913 59.578-59.578 0-104.262-20.48-137.775-61.44s-50.269-98.676-50.269-171.287c0-72.611 16.756-130.327 50.269-169.425s80.058-59.578 137.775-59.578zM655.36 837.12l22.342-37.236c5.585-11.171 13.033-22.342 18.618-33.513v0c5.585 11.171 11.171 24.204 16.756 33.513l20.48 35.375h76.335l-74.473-106.124 74.473-117.295h-78.196l-22.342 40.96c-5.585 11.171-11.171 22.342-16.756 33.513h-1.862c-5.585-11.171-11.171-22.342-16.756-33.513l-22.342-39.098h-76.335l76.335 113.571-74.473 109.847h78.196zM888.087 831.535l27.927-89.367c3.724-11.171 7.447-24.204 9.309-33.513h1.862c1.862 9.309 5.585 24.204 7.447 33.513l22.342 89.367h61.44l-42.822-119.156c-26.065-72.611-42.822-100.538-63.302-119.156-20.48-16.756-40.96-22.342-53.993-24.204l-11.171 48.407c7.447 1.862 16.756 3.724 24.204 9.309 9.309 3.724 18.618 13.033 24.204 22.342 1.862 1.862 3.724 5.585 3.724 7.447s0 5.585-1.862 9.309l-67.025 165.702h57.716z" />
<glyph unicode="&#xe913;" glyph-name="math_ax-y" horiz-adv-x="1229" d="M325.632-41.472c-59.392 0-110.592 14.336-153.6 40.96-45.056 26.624-77.824 67.584-102.4 118.784s-36.864 110.592-36.864 180.224c0 69.632 12.288 129.024 36.864 182.272 24.576 51.2 59.392 92.16 102.4 120.832 45.056 28.672 96.256 43.008 153.6 43.008 61.44 0 112.64-14.336 153.6-45.056 43.008-30.72 69.632-71.68 86.016-126.976l-16.384-10.24v165.888h104.448v-661.504h-104.448v169.984l16.384-8.192c-14.336-55.296-43.008-98.304-86.016-126.976s-94.208-43.008-153.6-43.008zM346.112 46.592c65.536 0 114.688 22.528 149.504 65.536 34.816 45.056 53.248 106.496 53.248 188.416s-18.432 143.36-53.248 188.416c-34.816 43.008-86.016 65.536-149.504 65.536-65.536 0-114.688-22.528-151.552-67.584s-55.296-108.544-55.296-188.416c0-79.872 18.432-143.36 55.296-186.368s88.064-65.536 151.552-65.536zM1001.472 794.112v-38.912h-137.216v38.912h137.216zM690.176 896.512l24.576-40.96c6.144-12.288 14.336-24.576 20.48-36.864v0c6.144 12.288 12.288 26.624 18.432 36.864l22.528 38.912h83.968l-81.92-116.736 81.92-129.024h-86.016l-24.576 45.056c-6.144 12.288-12.288 24.576-18.432 36.864h-2.048c-6.144-12.288-12.288-24.576-18.432-36.864l-22.528-45.056h-83.968l81.92 126.976-81.92 120.832h86.016zM1089.536 910.848l30.72-98.304c4.096-12.288 8.192-26.624 10.24-36.864h2.048c2.048 10.24 6.144 26.624 8.192 36.864l24.576 98.304h67.584l-47.104-131.072c-28.672-79.872-47.104-110.592-69.632-131.072-22.528-18.432-45.056-24.576-59.392-26.624l-16.384 51.2c8.192 2.048 18.432 4.096 26.624 10.24 10.24 4.096 20.48 14.336 26.624 24.576 2.048 2.048 4.096 6.144 4.096 8.192s0 6.144-2.048 10.24l-73.728 182.272h67.584z" />
<glyph unicode="&#xe914;" glyph-name="math_ay" d="M327.68-50.967c-63.302 0-119.156 14.895-165.702 44.684-48.407 29.789-83.782 72.611-109.847 126.604-26.065 55.855-39.098 119.156-39.098 193.629s13.033 139.636 39.098 195.491c26.065 55.855 63.302 98.676 111.709 130.327s102.4 46.545 163.84 46.545c65.164 0 119.156-16.756 165.702-48.407 44.684-31.651 76.335-78.196 91.229-137.775l-16.756-11.171v178.735h113.571v-709.353h-113.571v184.32l16.756-9.309c-16.756-59.578-46.545-104.262-91.229-137.775-46.545-31.651-102.4-46.545-165.702-46.545zM350.022 43.985c68.887 0 122.88 24.204 160.116 70.749 37.236 48.407 55.855 115.433 55.855 202.938s-18.618 154.531-57.716 201.076c-37.236 46.545-91.229 70.749-160.116 70.749s-124.742-24.204-163.84-72.611c-37.236-48.407-55.855-115.433-55.855-202.938s18.618-152.669 57.716-201.076c39.098-46.545 93.091-68.887 163.84-68.887zM787.549 924.625l42.822-139.636c5.585-16.756 11.171-37.236 14.895-52.131h1.862c3.724 14.895 9.309 37.236 13.033 52.131l33.513 139.636h94.953l-67.025-188.044c-40.96-113.571-68.887-158.255-100.538-186.182-31.651-26.065-63.302-35.375-85.644-39.098l-18.618 74.473c11.171 1.862 24.204 7.447 39.098 14.895 13.033 7.447 27.927 20.48 37.236 35.375 3.724 3.724 5.585 9.309 5.585 13.033s0 7.447-3.724 14.895l-106.124 260.655h98.676z" />
<glyph unicode="&#xe915;" glyph-name="math_a-11" horiz-adv-x="1408" d="M427.52-46.080c-79.36 0-148.48 17.92-207.36 56.32s-104.96 92.16-138.24 163.84c-33.28 71.68-48.64 153.6-48.64 250.88 0 94.72 15.36 179.2 48.64 250.88s79.36 128 138.24 166.4c58.88 40.96 128 58.88 207.36 58.88 81.92 0 151.040-20.48 207.36-61.44s94.72-99.84 115.2-176.64l-20.48-15.36v230.4h140.8v-913.92h-140.8v235.52l20.48-10.24c-20.48-76.8-58.88-135.68-115.2-176.64-56.32-38.4-125.44-58.88-207.36-58.88zM458.24 76.8c87.040 0 153.6 30.72 202.24 92.16 46.080 61.44 71.68 148.48 71.68 261.12s-23.040 199.68-71.68 261.12c-51.2 58.88-117.76 89.6-202.24 89.6-87.040 0-156.16-30.72-204.8-94.72-51.2-61.44-74.24-148.48-74.24-261.12s25.6-197.12 74.24-258.56c48.64-58.88 115.2-89.6 204.8-89.6zM1090.56 422.4v0l-110.080-51.2-23.040 99.84 151.040 69.12h110.080v-570.88h-128v453.12z" />
<glyph unicode="&#xe916;" glyph-name="math_a-n" horiz-adv-x="1374" d="M414.595-46.517c-77.424 0-144.859 17.483-202.302 54.946s-102.4 89.912-134.868 159.844c-32.468 69.932-47.454 149.854-47.454 244.761 0 92.41 14.985 174.829 47.454 244.761s77.424 124.878 134.868 162.341c57.444 39.961 124.878 57.444 202.302 57.444 79.922 0 147.356-19.98 202.302-59.941s92.41-97.405 112.39-172.332l-19.98-14.985v224.78h137.366v-891.629h-137.366v229.776l19.98-9.99c-19.98-74.927-57.444-132.371-112.39-172.332-54.946-37.463-122.38-57.444-202.302-57.444zM442.068 73.366c84.917 0 149.854 29.971 197.307 89.912 44.956 59.941 69.932 144.859 69.932 254.751s-22.478 194.81-69.932 254.751c-47.454 57.444-112.39 87.415-197.307 87.415s-152.351-29.971-199.805-92.41c-47.454-59.941-72.429-144.859-72.429-254.751s24.976-192.312 72.429-252.254c47.454-57.444 114.888-87.415 199.805-87.415zM926.595 285.659c0 57.444-2.498 107.395-4.995 147.356h124.878l7.493-62.439h2.498c19.98 29.971 64.937 72.429 142.361 72.429 94.907 0 164.839-62.439 164.839-197.307v-272.234h-142.361v254.751c0 59.941-19.98 99.902-72.429 99.902-39.961 0-62.439-27.473-72.429-54.946-4.995-7.493-4.995-22.478-4.995-34.966v-264.741h-142.361v312.195z" />
<glyph unicode="&#xe917;" glyph-name="math_a-n1" horiz-adv-x="1434" d="M299.008-20.992c-55.296 0-104.448 14.336-145.408 40.96s-73.728 65.536-96.256 114.688c-24.576 49.152-36.864 108.544-36.864 176.128s12.288 126.976 34.816 176.128c22.528 51.2 55.296 90.112 98.304 116.736 40.96 28.672 90.112 43.008 145.408 43.008 57.344 0 106.496-14.336 145.408-43.008s67.584-69.632 81.92-124.928l-14.336-10.24v163.84h100.352v-643.072h-100.352v165.888l14.336-8.192c-14.336-53.248-40.96-94.208-81.92-124.928-38.912-28.672-88.064-43.008-145.408-43.008zM319.488 65.024c61.44 0 108.544 22.528 141.312 65.536s49.152 104.448 49.152 184.32c0 79.872-16.384 139.264-51.2 182.272s-79.872 63.488-141.312 63.488c-61.44 0-108.544-22.528-143.36-65.536s-51.2-104.448-51.2-184.32c0-77.824 16.384-139.264 51.2-182.272s83.968-63.488 145.408-63.488zM1136.64 220.672v-83.968h81.92v-36.864h-81.92v-86.016h-38.912v86.016h-81.92v36.864h81.92v83.968h38.912zM686.080 187.904c0 38.912-2.048 71.68-2.048 98.304h81.92l4.096-43.008h2.048c12.288 20.48 43.008 49.152 94.208 49.152 63.488 0 110.592-40.96 110.592-131.072v-182.272h-96.256v169.984c0 38.912-14.336 65.536-49.152 65.536-26.624 0-43.008-18.432-49.152-34.816-2.048-6.144-4.096-14.336-4.096-24.576v-176.128h-96.256v208.896zM1308.672 220.672v0l-63.488-28.672-12.288 57.344 86.016 40.96h63.488v-323.584h-73.728v253.952z" />
<glyph unicode="&#xe918;" glyph-name="math_a-n-1" horiz-adv-x="1434" d="M317.44 19.968c-55.296 0-104.448 14.336-145.408 40.96s-73.728 65.536-96.256 114.688c-22.528 49.152-34.816 108.544-34.816 176.128s12.288 126.976 34.816 176.128c22.528 51.2 55.296 90.112 98.304 116.736 40.96 28.672 90.112 43.008 145.408 43.008 57.344 0 106.496-14.336 145.408-43.008s67.584-69.632 81.92-124.928l-18.432-10.24v163.84h100.352v-643.072h-100.352v165.888l14.336-8.192c-14.336-53.248-40.96-94.208-81.92-124.928-38.912-28.672-86.016-43.008-143.36-43.008zM335.872 105.984c61.44 0 108.544 22.528 141.312 65.536s49.152 104.448 49.152 184.32c0 79.872-16.384 139.264-51.2 182.272s-79.872 63.488-141.312 63.488c-61.44 0-108.544-22.528-143.36-65.536s-51.2-104.448-51.2-184.32c0-77.824 16.384-139.264 51.2-182.272 36.864-43.008 83.968-63.488 145.408-63.488zM681.984 228.864c0 38.912-2.048 71.68-2.048 98.304h81.92l4.096-43.008h2.048c12.288 20.48 43.008 49.152 94.208 49.152 63.488 0 110.592-40.96 110.592-131.072v-182.272h-96.256v169.984c0 38.912-14.336 65.536-49.152 65.536-26.624 0-43.008-18.432-49.152-34.816-2.048-6.144-4.096-14.336-4.096-24.576v-176.128h-96.256v208.896zM1210.368 179.712v-47.104h-194.56v47.104h194.56zM1304.576 261.632v0l-63.488-28.672-12.288 55.296 86.016 40.96h63.488v-323.584h-73.728v256z" />
<glyph unicode="&#xe919;" glyph-name="math_bx" d="M772.655 917.178l35.375-59.578c11.171-18.618 20.48-37.236 29.789-53.993h1.862c9.309 18.618 18.618 37.236 27.927 55.855l31.651 57.716h121.018l-119.156-171.287 119.156-188.044h-126.604l-35.375 65.164c-11.171 16.756-18.618 35.375-27.927 53.993h-1.862c-9.309-18.618-18.618-37.236-27.927-53.993l-33.513-65.164h-122.88l122.88 182.458-119.156 176.873h124.742zM29.789-37.935v895.535h98.676v-441.251l-13.033 13.033c13.033 50.269 40.96 89.367 80.058 117.295s85.644 42.822 141.498 42.822c53.993 0 102.4-13.033 143.36-39.098s72.611-63.302 94.953-109.847c22.342-46.545 35.375-102.4 35.375-167.564 0-63.302-11.171-121.018-35.375-169.425-22.342-48.407-55.855-85.644-96.815-111.709s-87.505-39.098-141.498-39.098c-55.855 0-102.4 13.033-141.498 40.96s-65.164 67.025-80.058 117.295l13.033 13.033v-163.84h-98.676zM316.509 34.676c59.578 0 106.124 20.48 139.636 63.302 33.513 40.96 50.269 100.538 50.269 176.873 0 74.473-16.756 130.327-50.269 171.287s-80.058 61.44-139.636 61.44c-61.44 0-107.985-20.48-139.636-61.44-31.651-42.822-48.407-100.538-48.407-175.011 0-76.335 16.756-134.051 48.407-175.011 33.513-40.96 80.058-61.44 139.636-61.44z" />
<glyph unicode="&#xe91a;" glyph-name="math_b-1" d="M53.248-29.184c2.048 45.056 6.144 112.64 6.144 172.032v798.72h118.784v-415.744h2.048c43.008 73.728 118.784 120.832 225.28 120.832 163.84 0 280.576-137.216 278.528-337.92 2.048-235.52-147.456-352.256-294.912-352.256-96.256 0-172.032 36.864-221.184 124.928h-4.096l-6.144-108.544h-104.448zM178.176 237.056c0-14.336 2.048-30.72 6.144-43.008 22.528-83.968 92.16-141.312 180.224-141.312 124.928 0 200.704 102.4 200.704 253.952 0 133.12-67.584 245.76-196.608 245.76-81.92 0-157.696-55.296-184.32-147.456-2.048-14.336-6.144-30.72-6.144-49.152v-118.784zM841.728 433.664v0l-92.16-49.152-14.336 53.248 114.688 61.44h61.44v-526.336h-69.632v460.8z" />
<glyph unicode="&#xe91b;" glyph-name="math_b-n" d="M661.504 220.672c0 45.056-2.048 83.968-2.048 114.688h96.256l6.144-49.152h2.048c14.336 22.528 51.2 57.344 110.592 57.344 73.728 0 129.024-49.152 129.024-153.6v-212.992h-112.64v198.656c0 47.104-16.384 77.824-57.344 77.824-30.72 0-49.152-20.48-57.344-40.96-2.048-6.144-4.096-18.432-4.096-28.672v-206.848h-112.64v243.712zM12.288-29.184c2.048 45.056 6.144 112.64 6.144 172.032v798.72h118.784v-415.744h2.048c43.008 73.728 118.784 120.832 225.28 120.832 163.84 0 280.576-137.216 278.528-337.92 2.048-235.52-147.456-352.256-294.912-352.256-96.256 0-172.032 36.864-221.184 124.928h-4.096l-6.144-108.544h-104.448zM137.216 237.056c0-14.336 2.048-30.72 6.144-43.008 22.528-83.968 92.16-141.312 180.224-141.312 124.928 0 200.704 102.4 200.704 253.952 0 133.12-67.584 245.76-196.608 245.76-81.92 0-157.696-55.296-184.32-147.456-2.048-14.336-6.144-30.72-6.144-49.152v-118.784z" />
<glyph unicode="&#xe91c;" glyph-name="math_b-n1" horiz-adv-x="1434" d="M1107.968 235.008v-88.064h83.968v-38.912h-83.968v-88.064h-38.912v88.064h-86.016v38.912h83.968v88.064h40.96zM653.312 208.384c0 38.912-2.048 71.68-2.048 98.304h81.92l4.096-43.008h2.048c12.288 20.48 43.008 49.152 94.208 49.152 63.488 0 110.592-40.96 110.592-131.072v-182.272h-96.256v169.984c0 38.912-14.336 65.536-49.152 65.536-26.624 0-43.008-18.432-49.152-34.816-2.048-6.144-4.096-14.336-4.096-24.576v-176.128h-96.256v208.896zM1296.384 241.152v0l-63.488-28.672-12.288 57.344 86.016 40.96h63.488v-323.584h-73.728v253.952zM45.056-6.656c2.048 40.96 4.096 102.4 4.096 157.696v737.28h110.592v-382.976h4.096c38.912 67.584 110.592 112.64 206.848 112.64 151.552 0 258.048-126.976 256-311.296 0-217.088-137.216-325.632-272.384-325.632-88.064 0-159.744 34.816-204.8 114.688h-2.048l-4.096-100.352h-98.304zM159.744 237.056c0-14.336 2.048-28.672 4.096-40.96 20.48-77.824 86.016-129.024 165.888-129.024 116.736 0 184.32 94.208 184.32 233.472 0 122.88-63.488 227.328-182.272 227.328-75.776 0-145.408-51.2-167.936-135.168-2.048-12.288-6.144-28.672-6.144-45.056v-110.592z" />
<glyph unicode="&#xe91d;" glyph-name="math_b-n-1" horiz-adv-x="1434" d="M653.312 228.864c0 38.912-2.048 71.68-2.048 98.304h81.92l4.096-43.008h2.048c12.288 20.48 43.008 49.152 94.208 49.152 63.488 0 110.592-40.96 110.592-131.072v-182.272h-96.256v169.984c0 38.912-14.336 65.536-49.152 65.536-26.624 0-43.008-18.432-49.152-34.816-2.048-6.144-4.096-14.336-4.096-24.576v-176.128h-96.256v208.896zM1220.608 179.712v-45.056h-239.616v45.056h239.616zM1296.384 261.632v0l-63.488-28.672-12.288 57.344 86.016 40.96h63.488v-323.584h-73.728v253.952zM45.056 34.304c2.048 40.96 4.096 102.4 4.096 157.696v737.28h110.592v-382.976h4.096c38.912 67.584 110.592 112.64 206.848 112.64 151.552 0 258.048-126.976 256-311.296 0-217.088-137.216-325.632-272.384-325.632-88.064 0-159.744 34.816-204.8 114.688h-2.048l-4.096-100.352h-98.304zM159.744 278.016c0-14.336 2.048-28.672 4.096-40.96 20.48-77.824 86.016-129.024 165.888-129.024 116.736 0 184.32 94.208 184.32 233.472 0 122.88-63.488 227.328-182.272 227.328-75.776 0-145.408-51.2-167.936-135.168-2.048-12.288-6.144-28.672-6.144-45.056v-110.592z" />
<glyph unicode="&#xe91e;" glyph-name="math_b-sm" horiz-adv-x="676" d="M12.288-29.184c2.048 45.056 6.144 112.64 6.144 172.032v798.72h118.784v-415.744h2.048c43.008 73.728 118.784 120.832 225.28 120.832 163.84 0 280.576-137.216 278.528-337.92 2.048-235.52-147.456-352.256-294.912-352.256-96.256 0-172.032 36.864-221.184 124.928h-4.096l-6.144-108.544h-104.448zM137.216 237.056c0-14.336 2.048-30.72 6.144-43.008 22.528-83.968 92.16-141.312 180.224-141.312 124.928 0 200.704 102.4 200.704 253.952 0 133.12-67.584 245.76-196.608 245.76-81.92 0-157.696-55.296-184.32-147.456-2.048-14.336-6.144-30.72-6.144-49.152v-118.784z" />
<glyph unicode="&#xe91f;" glyph-name="math_c" horiz-adv-x="774" d="M739.556 4.267c-43.236-22.756-138.809-52.338-259.413-52.338-270.791 0-448.284 184.32-448.284 459.662 0 277.618 188.871 477.867 484.693 477.867 97.849 0 182.044-25.031 227.556-45.511l-36.409-127.431c-38.684 22.756-100.124 43.236-188.871 43.236-207.076 0-318.578-152.462-318.578-341.333 0-209.351 134.258-336.782 311.751-336.782 93.298 0 154.738 25.031 200.249 45.511l27.307-122.88z" />
<glyph unicode="&#xe920;" glyph-name="math_cosxy" horiz-adv-x="2662" d="M1529.856 855.552c-73.728-100.352-124.928-231.424-124.928-415.744 0-180.224 55.296-311.296 124.928-413.696h-69.632c-61.44 83.968-129.024 215.040-129.024 413.696 0 200.704 67.584 329.728 131.072 415.744h67.584zM2451.456 46.592c71.68 100.352 126.976 233.472 126.976 415.744s-55.296 313.344-126.976 413.696h69.632c65.536-83.968 133.12-212.992 133.12-413.696 0-198.656-67.584-327.68-133.12-415.744h-69.632zM1796.096 204.288l-61.44 106.496c-24.576 40.96-40.96 67.584-55.296 96.256h-2.048c-14.336-28.672-26.624-53.248-53.248-96.256l-57.344-106.496h-71.68l149.504 243.712-141.312 239.616h71.68l63.488-112.64c18.432-30.72 30.72-55.296 45.056-81.92h2.048c14.336 28.672 26.624 51.2 43.008 81.92l65.536 112.64h71.68l-147.456-235.52 149.504-247.808h-71.68zM442.368 173.568c-24.576-12.288-81.92-30.72-153.6-30.72-161.792 0-266.24 110.592-266.24 274.432 0 165.888 112.64 284.672 288.768 284.672 57.344 0 108.544-14.336 135.168-28.672l-22.528-75.776c-22.528 12.288-59.392 24.576-112.64 24.576-122.88 0-190.464-90.112-190.464-202.752 0-124.928 79.872-200.704 186.368-200.704 55.296 0 92.16 14.336 118.784 26.624l16.384-71.68zM952.32 427.52c0-198.656-137.216-284.672-266.24-284.672-145.408 0-256 106.496-256 276.48 0 180.224 116.736 284.672 266.24 284.672 151.552-2.048 256-112.64 256-276.48zM526.336 421.376c0-116.736 67.584-206.848 163.84-206.848 92.16 0 163.84 88.064 163.84 208.896 0 90.112-45.056 206.848-159.744 206.848-116.736 0-167.936-106.496-167.936-208.896zM978.944 253.44c28.672-18.432 79.872-38.912 129.024-38.912 71.68 0 104.448 34.816 104.448 79.872 0 47.104-28.672 71.68-100.352 98.304-96.256 34.816-141.312 88.064-141.312 151.552 0 86.016 69.632 157.696 184.32 157.696 55.296 0 102.4-16.384 131.072-32.768l-24.576-71.68c-20.48 12.288-59.392 30.72-110.592 30.72-57.344 0-90.112-32.768-90.112-73.728 0-45.056 32.768-63.488 102.4-90.112 92.16-34.816 141.312-81.92 141.312-161.792 0-94.208-73.728-159.744-200.704-159.744-59.392 0-112.64 14.336-151.552 36.864l26.624 73.728zM2187.264 683.52l77.824-208.896c8.192-22.528 16.384-51.2 22.528-71.68h2.048c6.144 20.48 14.336 47.104 22.528 73.728l69.632 206.848h67.584l-96.256-251.904c-45.056-120.832-77.824-182.272-120.832-221.184-30.72-26.624-63.488-38.912-77.824-40.96l-16.384 53.248c16.384 4.096 36.864 14.336 55.296 30.72 18.432 14.336 38.912 38.912 53.248 71.68 2.048 6.144 4.096 12.288 4.096 14.336 0 4.096-2.048 8.192-4.096 16.384l-131.072 323.584h71.68zM2033.664 585.216v-133.12h126.976v-57.344h-126.976v-135.168h-59.392v135.168h-126.976v57.344h126.976v133.12h59.392z" />
<glyph unicode="&#xe921;" glyph-name="math_cosx-y" horiz-adv-x="2662" d="M1568.768 855.552c-73.728-100.352-126.976-231.424-126.976-415.744 0-180.224 55.296-311.296 124.928-413.696h-69.632c-63.488 83.968-131.072 215.040-131.072 413.696 0 200.704 67.584 329.728 131.072 415.744h71.68zM2447.36 5.632c71.68 100.352 126.976 233.472 126.976 415.744s-55.296 313.344-126.976 413.696h69.632c65.536-83.968 133.12-212.992 133.12-413.696 0-198.656-67.584-327.68-133.12-415.744h-69.632zM1804.288 183.808l-59.392 102.4c-24.576 38.912-38.912 65.536-53.248 92.16h-2.048c-12.288-26.624-26.624-51.2-51.2-92.16l-55.296-102.4h-69.632l143.36 235.52-137.216 229.376h69.632l61.44-108.544c16.384-30.72 30.72-53.248 43.008-77.824h2.048c12.288 28.672 24.576 49.152 43.008 77.824l63.488 108.544h69.632l-141.312-227.328 145.408-239.616h-71.68zM440.32 153.088c-24.576-12.288-81.92-30.72-153.6-30.72-161.792 0-266.24 110.592-266.24 274.432 0 165.888 112.64 284.672 288.768 284.672 57.344 0 108.544-14.336 135.168-28.672l-22.528-75.776c-22.528 12.288-59.392 24.576-112.64 24.576-122.88 0-190.464-90.112-190.464-202.752 0-124.928 79.872-200.704 186.368-200.704 55.296 0 92.16 14.336 118.784 26.624l16.384-71.68zM976.896 407.040c0-198.656-137.216-284.672-266.24-284.672-145.408 0-256 106.496-256 276.48 0 180.224 116.736 284.672 266.24 284.672 153.6-2.048 256-112.64 256-276.48zM552.96 400.896c0-116.736 67.584-206.848 163.84-206.848 92.16 0 163.84 88.064 163.84 208.896 0 90.112-45.056 206.848-159.744 206.848s-167.936-106.496-167.936-208.896zM1032.192 232.96c28.672-18.432 79.872-38.912 129.024-38.912 71.68 0 104.448 34.816 104.448 79.872 0 47.104-28.672 71.68-100.352 98.304-96.256 34.816-141.312 88.064-141.312 153.6 0 86.016 69.632 157.696 184.32 157.696 55.296 0 102.4-16.384 131.072-32.768l-24.576-71.68c-20.48 12.288-59.392 30.72-110.592 30.72-57.344 0-90.112-32.768-90.112-73.728 0-45.056 32.768-63.488 102.4-90.112 92.16-34.816 141.312-81.92 141.312-161.792 0-94.208-73.728-159.744-200.704-159.744-59.392 0-112.64 14.336-151.552 36.864l26.624 71.68zM2177.024 654.848l79.872-212.992c8.192-24.576 16.384-53.248 22.528-73.728h2.048c6.144 22.528 14.336 49.152 22.528 75.776l71.68 210.944h69.632l-98.304-258.048c-47.104-122.88-79.872-186.368-122.88-225.28-32.768-28.672-63.488-38.912-79.872-43.008l-16.384 55.296c16.384 6.144 38.912 16.384 57.344 32.768 18.432 14.336 40.96 38.912 55.296 73.728 2.048 6.144 6.144 12.288 6.144 16.384s-2.048 8.192-4.096 16.384l-133.12 333.824h67.584zM2148.352 437.76v-49.152h-274.432v49.152h274.432z" />
<glyph unicode="&#xe922;" glyph-name="math_cos2x" horiz-adv-x="2253" d="M2146.304 132.608l-75.776 129.024c-30.72 49.152-49.152 81.92-67.584 116.736h-2.048c-16.384-34.816-32.768-65.536-63.488-116.736l-69.632-129.024h-88.064l180.224 296.96-172.032 290.816h88.064l77.824-137.216c22.528-38.912 38.912-67.584 53.248-98.304h2.048c16.384 34.816 30.72 61.44 53.248 98.304l79.872 137.216h88.064l-178.176-284.672 182.272-301.056h-88.064zM436.224 153.088c-24.576-12.288-81.92-30.72-153.6-30.72-161.792 0-266.24 110.592-266.24 274.432 0 165.888 112.64 284.672 288.768 284.672 57.344 0 108.544-14.336 135.168-28.672l-22.528-75.776c-22.528 12.288-59.392 24.576-112.64 24.576-122.88 0-190.464-90.112-190.464-202.752 0-124.928 79.872-200.704 186.368-200.704 55.296 0 92.16 14.336 118.784 26.624l16.384-71.68zM946.176 407.040c0-198.656-137.216-284.672-266.24-284.672-145.408 0-256 106.496-256 276.48 0 180.224 116.736 284.672 266.24 284.672 151.552-2.048 256-112.64 256-276.48zM520.192 400.896c0-116.736 67.584-206.848 163.84-206.848 92.16 0 163.84 88.064 163.84 208.896 0 90.112-45.056 206.848-159.744 206.848-116.736 0-167.936-106.496-167.936-208.896zM972.8 232.96c28.672-18.432 79.872-38.912 129.024-38.912 71.68 0 104.448 34.816 104.448 79.872 0 47.104-28.672 71.68-100.352 98.304-96.256 34.816-141.312 88.064-141.312 151.552 0 86.016 69.632 157.696 184.32 157.696 55.296 0 102.4-16.384 131.072-32.768l-24.576-71.68c-20.48 12.288-59.392 30.72-110.592 30.72-57.344 0-90.112-32.768-90.112-73.728 0-45.056 32.768-63.488 102.4-90.112 92.16-34.816 141.312-81.92 141.312-161.792 0-94.208-73.728-159.744-200.704-159.744-59.392 0-112.64 14.336-151.552 36.864l26.624 73.728zM1388.544 130.56v47.104l59.392 57.344c143.36 135.168 206.848 206.848 206.848 292.864 0 57.344-26.624 108.544-110.592 108.544-51.2 0-92.16-26.624-118.784-47.104l-24.576 53.248c38.912 32.768 94.208 57.344 157.696 57.344 120.832 0 169.984-81.92 169.984-161.792 0-102.4-73.728-186.368-192.512-299.008l-45.056-40.96v-2.048h249.856v-63.488h-352.256z" />
<glyph unicode="&#xe923;" glyph-name="math_cosx" horiz-adv-x="1741" d="M1652.736 140.8l-73.728 129.024c-30.72 49.152-49.152 81.92-67.584 114.688h-2.048c-16.384-32.768-32.768-65.536-63.488-114.688l-67.584-129.024h-88.064l178.176 294.912-169.984 286.72h88.064l75.776-137.216c22.528-38.912 38.912-67.584 53.248-98.304h2.048c16.384 34.816 30.72 61.44 53.248 98.304l79.872 137.216h86.016l-176.128-282.624 180.224-299.008h-88.064zM438.272 173.568c-24.576-12.288-81.92-30.72-153.6-30.72-161.792 0-266.24 110.592-266.24 274.432 0 165.888 112.64 284.672 288.768 284.672 57.344 0 108.544-14.336 135.168-28.672l-22.528-75.776c-22.528 12.288-59.392 24.576-112.64 24.576-122.88 0-190.464-90.112-190.464-202.752 0-124.928 79.872-200.704 186.368-200.704 55.296 0 92.16 14.336 118.784 26.624l16.384-71.68zM948.224 427.52c0-198.656-137.216-284.672-266.24-284.672-145.408 0-256 106.496-256 276.48 0 180.224 116.736 284.672 266.24 284.672 151.552-2.048 256-112.64 256-276.48zM524.288 421.376c0-116.736 67.584-206.848 163.84-206.848 92.16 0 163.84 88.064 163.84 208.896 0 90.112-45.056 206.848-159.744 206.848-118.784 0-167.936-106.496-167.936-208.896zM974.848 253.44c28.672-18.432 79.872-38.912 129.024-38.912 71.68 0 104.448 34.816 104.448 79.872 0 47.104-28.672 71.68-100.352 98.304-96.256 34.816-141.312 88.064-141.312 151.552 0 86.016 69.632 157.696 184.32 157.696 55.296 0 102.4-16.384 131.072-32.768l-24.576-71.68c-20.48 12.288-59.392 30.72-110.592 30.72-57.344 0-90.112-32.768-90.112-73.728 0-45.056 32.768-63.488 102.4-90.112 92.16-34.816 141.312-81.92 141.312-161.792 0-94.208-73.728-159.744-200.704-159.744-59.392 0-112.64 14.336-151.552 36.864l26.624 73.728z" />
<glyph unicode="&#xe924;" glyph-name="math_cosy" horiz-adv-x="1843" d="M434.176 153.088c-24.576-12.288-81.92-30.72-153.6-30.72-161.792 0-266.24 110.592-266.24 274.432 0 165.888 112.64 284.672 288.768 284.672 57.344 0 108.544-14.336 135.168-28.672l-22.528-75.776c-22.528 12.288-59.392 24.576-112.64 24.576-122.88 0-190.464-90.112-190.464-202.752 0-124.928 79.872-200.704 186.368-200.704 55.296 0 92.16 14.336 118.784 26.624l16.384-71.68zM944.128 407.040c0-198.656-137.216-284.672-266.24-284.672-145.408 0-256 106.496-256 276.48 0 180.224 116.736 284.672 266.24 284.672 151.552-2.048 256-112.64 256-276.48zM518.144 400.896c0-116.736 67.584-206.848 163.84-206.848 92.16 0 163.84 88.064 163.84 208.896 0 90.112-45.056 206.848-159.744 206.848-116.736 0-167.936-106.496-167.936-208.896zM970.752 232.96c28.672-18.432 79.872-38.912 129.024-38.912 71.68 0 104.448 34.816 104.448 79.872 0 47.104-28.672 71.68-100.352 98.304-96.256 34.816-141.312 88.064-141.312 153.6 0 86.016 69.632 157.696 184.32 157.696 55.296 0 102.4-16.384 131.072-32.768l-24.576-71.68c-20.48 12.288-59.392 30.72-110.592 30.72-57.344 0-90.112-32.768-90.112-73.728 0-45.056 32.768-63.488 102.4-90.112 92.16-34.816 141.312-81.92 141.312-161.792 0-94.208-73.728-159.744-200.704-159.744-59.392 0-112.64 14.336-151.552 36.864l26.624 71.68zM1484.8 681.472l96.256-258.048c10.24-28.672 20.48-63.488 28.672-90.112h2.048c8.192 26.624 16.384 59.392 28.672 92.16l86.016 256h83.968l-118.784-311.296c-57.344-149.504-96.256-227.328-149.504-274.432-38.912-34.816-77.824-47.104-98.304-51.2l-20.48 67.584c20.48 6.144 47.104 18.432 69.632 38.912 22.528 16.384 49.152 47.104 67.584 88.064 4.096 8.192 6.144 14.336 6.144 18.432s-2.048 10.24-6.144 20.48l-161.792 403.456h86.016z" />
<glyph unicode="&#xe925;" glyph-name="math_ctgxy" horiz-adv-x="2867" d="M1597.44 835.072c-73.728-100.352-124.928-231.424-124.928-415.744 0-180.224 55.296-311.296 124.928-413.696h-69.632c-63.488 83.968-131.072 215.040-131.072 413.696 0 200.704 67.584 329.728 131.072 415.744h69.632zM2662.4 5.632c71.68 100.352 126.976 233.472 126.976 415.744s-55.296 313.344-126.976 413.696h69.632c65.536-83.968 133.12-212.992 133.12-413.696 0-198.656-67.584-327.68-133.12-415.744h-69.632zM1921.024 136.704l-69.632 118.784c-28.672 45.056-45.056 75.776-61.44 106.496h-2.048c-14.336-30.72-30.72-59.392-57.344-106.496l-65.536-118.784h-79.872l163.84 272.384-157.696 266.24h79.872l71.68-126.976c20.48-34.816 34.816-61.44 49.152-90.112h2.048c14.336 32.768 28.672 57.344 49.152 90.112l73.728 126.976h79.872l-163.84-262.144 167.936-276.48h-79.872zM2412.544 681.472l90.112-241.664c10.24-26.624 20.48-59.392 26.624-83.968h2.048c8.192 24.576 16.384 55.296 26.624 86.016l81.92 241.664h77.824l-112.64-292.864c-53.248-141.312-90.112-212.992-141.312-256-36.864-32.768-73.728-45.056-92.16-49.152l-18.432 63.488c18.432 6.144 43.008 18.432 65.536 36.864 20.48 16.384 45.056 45.056 63.488 83.968 4.096 8.192 6.144 14.336 6.144 18.432s-2.048 10.24-4.096 20.48l-151.552 378.88h79.872zM2181.12 548.352v-120.832h114.688v-51.2h-114.688v-120.832h-53.248v120.832h-114.688v51.2h114.688v118.784h53.248zM452.608 212.48c-24.576-12.288-81.92-30.72-153.6-30.72-161.792 0-266.24 110.592-266.24 274.432 0 165.888 112.64 284.672 288.768 284.672 57.344 0 108.544-14.336 135.168-28.672l-22.528-75.776c-22.528 12.288-59.392 24.576-112.64 24.576-122.88 0-190.464-90.112-190.464-202.752 0-124.928 79.872-200.704 186.368-200.704 55.296 0 92.16 14.336 118.784 26.624l16.384-71.68zM671.744 882.176v-153.6h139.264v-73.728h-139.264v-288.768c0-65.536 18.432-104.448 73.728-104.448 24.576 0 45.056 4.096 57.344 6.144l4.096-73.728c-18.432-8.192-49.152-12.288-86.016-12.288-45.056 0-81.92 14.336-104.448 40.96-28.672 28.672-36.864 75.776-36.864 139.264v292.864h-83.968v73.728h83.968v129.024l92.16 24.576zM1347.584 728.576c-2.048-38.912-4.096-81.92-4.096-147.456v-311.296c0-122.88-24.576-198.656-75.776-245.76-51.2-49.152-126.976-63.488-194.56-63.488-63.488 0-135.168 16.384-178.176 45.056l24.576 73.728c34.816-22.528 90.112-43.008 157.696-43.008 100.352 0 172.032 51.2 172.032 186.368v61.44h-2.048c-30.72-49.152-88.064-90.112-169.984-90.112-133.12 0-227.328 112.64-227.328 262.144 0 182.272 118.784 284.672 241.664 284.672 92.16 0 143.36-49.152 167.936-92.16h2.048l4.096 79.872h81.92zM1247.232 515.584c0 16.384-2.048 30.72-6.144 45.056-18.432 57.344-65.536 102.4-137.216 102.4-92.16 0-159.744-77.824-159.744-202.752 0-104.448 53.248-192.512 157.696-192.512 59.392 0 114.688 36.864 135.168 100.352 6.144 16.384 8.192 34.816 8.192 51.2v96.256z" />
<glyph unicode="&#xe926;" glyph-name="math_ctgx-y" horiz-adv-x="2867" d="M1597.44 855.552c-73.728-100.352-124.928-231.424-124.928-415.744 0-180.224 55.296-311.296 124.928-413.696h-69.632c-63.488 83.968-131.072 215.040-131.072 413.696 0 200.704 67.584 329.728 131.072 415.744h69.632zM2621.44 26.112c71.68 100.352 126.976 233.472 126.976 415.744s-55.296 313.344-126.976 413.696h69.632c65.536-83.968 133.12-212.992 133.12-413.696 0-198.656-67.584-327.68-133.12-415.744h-69.632zM1880.064 177.664l-69.632 118.784c-28.672 45.056-45.056 75.776-61.44 106.496h-2.048c-14.336-30.72-30.72-59.392-57.344-106.496l-65.536-118.784h-79.872l163.84 272.384-157.696 266.24h79.872l71.68-126.976c20.48-34.816 34.816-61.44 49.152-90.112h2.048c14.336 32.768 28.672 57.344 49.152 90.112l73.728 126.976h79.872l-163.84-262.144 167.936-276.48h-79.872zM2371.584 722.432l90.112-241.664c10.24-26.624 20.48-59.392 26.624-83.968h2.048c8.192 24.576 16.384 55.296 26.624 86.016l81.92 241.664h77.824l-112.64-292.864c-53.248-141.312-90.112-212.992-141.312-256-36.864-32.768-73.728-45.056-92.16-49.152l-18.432 63.488c18.432 6.144 43.008 18.432 65.536 36.864 20.48 16.384 45.056 45.056 63.488 83.968 4.096 8.192 6.144 14.336 6.144 18.432s-2.048 10.24-4.096 20.48l-151.552 378.88h79.872zM452.608 232.96c-24.576-12.288-81.92-30.72-153.6-30.72-161.792 0-266.24 110.592-266.24 274.432 0 165.888 112.64 284.672 288.768 284.672 57.344 0 108.544-14.336 135.168-28.672l-22.528-75.776c-22.528 12.288-59.392 24.576-112.64 24.576-122.88 0-190.464-90.112-190.464-202.752 0-124.928 79.872-200.704 186.368-200.704 55.296 0 92.16 14.336 118.784 26.624l16.384-71.68zM671.744 902.656v-153.6h139.264v-73.728h-139.264v-288.768c0-65.536 18.432-104.448 73.728-104.448 24.576 0 45.056 4.096 57.344 6.144l4.096-73.728c-18.432-8.192-49.152-12.288-86.016-12.288-45.056 0-81.92 14.336-104.448 40.96-28.672 28.672-36.864 75.776-36.864 139.264v292.864h-83.968v73.728h83.968v129.024l92.16 24.576zM1347.584 749.056c-2.048-38.912-4.096-81.92-4.096-147.456v-311.296c0-122.88-24.576-198.656-75.776-245.76-51.2-49.152-126.976-63.488-194.56-63.488-63.488 0-135.168 16.384-178.176 45.056l24.576 73.728c34.816-22.528 90.112-43.008 157.696-43.008 100.352 0 172.032 51.2 172.032 186.368v61.44h-2.048c-30.72-49.152-88.064-90.112-169.984-90.112-133.12 0-227.328 112.64-227.328 262.144 0 182.272 118.784 284.672 241.664 284.672 92.16 0 143.36-49.152 167.936-92.16h2.048l4.096 79.872h81.92zM1247.232 536.064c0 16.384-2.048 30.72-6.144 45.056-18.432 57.344-65.536 102.4-137.216 102.4-92.16 0-159.744-77.824-159.744-202.752 0-104.448 53.248-192.512 157.696-192.512 59.392 0 114.688 36.864 135.168 100.352 6.144 16.384 8.192 34.816 8.192 51.2v96.256zM2275.328 458.24v-57.344h-288.768v57.344h288.768z" />
<glyph unicode="&#xe927;" glyph-name="math_ctg2x" horiz-adv-x="2458" d="M2340.864 73.216l-88.064 163.84c-36.864 63.488-59.392 102.4-79.872 145.408h-2.048c-20.48-43.008-38.912-81.92-75.776-147.456l-83.968-161.792h-102.4l210.944 374.784-202.752 364.544h104.448l92.16-174.080c26.624-49.152 45.056-86.016 63.488-124.928h4.096c20.48 43.008 36.864 77.824 63.488 124.928l94.208 174.080h102.4l-210.944-360.448 215.040-380.928h-104.448zM1431.552 93.696v59.392l75.776 73.728c182.272 174.080 264.192 266.24 266.24 372.736 0 71.68-34.816 139.264-141.312 139.264-65.536 0-118.784-32.768-151.552-59.392l-30.72 67.584c49.152 40.96 118.784 71.68 202.752 71.68 153.6 0 219.136-104.448 219.136-206.848 0-131.072-96.256-237.568-245.76-382.976l-57.344-53.248v-2.048h321.536v-79.872h-458.752zM432.128 212.48c-24.576-12.288-81.92-30.72-153.6-30.72-161.792 0-266.24 110.592-266.24 274.432 0 165.888 112.64 284.672 288.768 284.672 57.344 0 108.544-14.336 135.168-28.672l-22.528-75.776c-22.528 12.288-59.392 24.576-112.64 24.576-122.88 0-190.464-90.112-190.464-202.752 0-124.928 79.872-200.704 186.368-200.704 55.296 0 92.16 14.336 118.784 26.624l16.384-71.68zM649.216 882.176v-153.6h139.264v-73.728h-139.264v-288.768c0-65.536 18.432-104.448 73.728-104.448 24.576 0 45.056 4.096 57.344 6.144l4.096-73.728c-20.48-8.192-49.152-12.288-88.064-12.288-45.056 0-81.92 14.336-104.448 40.96-28.672 28.672-36.864 75.776-36.864 139.264v292.864h-83.968v73.728h83.968v129.024l94.208 24.576zM1327.104 728.576c-2.048-38.912-4.096-81.92-4.096-147.456v-311.296c0-122.88-24.576-198.656-75.776-245.76-51.2-49.152-126.976-63.488-194.56-63.488-63.488 0-135.168 16.384-178.176 45.056l24.576 73.728c34.816-22.528 90.112-43.008 157.696-43.008 100.352 0 172.032 51.2 172.032 186.368v61.44h-2.048c-30.72-49.152-88.064-90.112-169.984-90.112-133.12 0-227.328 112.64-227.328 262.144 0 182.272 118.784 284.672 241.664 284.672 92.16 0 143.36-49.152 167.936-92.16h2.048l4.096 79.872h81.92zM1224.704 515.584c0 16.384-2.048 30.72-6.144 45.056-18.432 57.344-65.536 102.4-137.216 102.4-92.16 0-159.744-77.824-159.744-202.752 0-104.448 53.248-192.512 157.696-192.512 59.392 0 114.688 36.864 135.168 100.352 6.144 16.384 8.192 34.816 8.192 51.2v96.256z" />
<glyph unicode="&#xe928;" glyph-name="math_ctgx" horiz-adv-x="2048" d="M1847.296 52.736l-88.064 163.84c-36.864 63.488-59.392 102.4-79.872 145.408h-2.048c-20.48-43.008-38.912-81.92-75.776-147.456l-83.968-161.792h-102.4l212.992 374.784-202.752 364.544h104.448l92.16-174.080c26.624-49.152 45.056-86.016 63.488-124.928h4.096c20.48 43.008 36.864 77.824 63.488 124.928l90.112 174.080h102.4l-208.896-360.448 215.040-380.928h-104.448zM430.080 212.48c-24.576-12.288-81.92-30.72-153.6-30.72-161.792 0-266.24 110.592-266.24 274.432 0 165.888 112.64 284.672 288.768 284.672 57.344 0 108.544-14.336 135.168-28.672l-22.528-75.776c-22.528 12.288-59.392 24.576-112.64 24.576-122.88 0-190.464-90.112-190.464-202.752 0-124.928 79.872-200.704 186.368-200.704 55.296 0 92.16 14.336 118.784 26.624l16.384-71.68zM649.216 882.176v-153.6h139.264v-73.728h-139.264v-288.768c0-65.536 18.432-104.448 73.728-104.448 24.576 0 45.056 4.096 57.344 6.144l4.096-73.728c-20.48-8.192-49.152-12.288-88.064-12.288-45.056 0-81.92 14.336-104.448 40.96-28.672 28.672-36.864 75.776-36.864 139.264v292.864h-83.968v73.728h81.92v129.024l96.256 24.576zM1325.056 728.576c-2.048-38.912-4.096-81.92-4.096-147.456v-311.296c0-122.88-24.576-198.656-75.776-245.76-51.2-49.152-126.976-63.488-194.56-63.488-63.488 0-135.168 16.384-178.176 45.056l24.576 73.728c34.816-22.528 90.112-43.008 157.696-43.008 100.352 0 172.032 51.2 172.032 186.368v61.44h-2.048c-30.72-49.152-88.064-90.112-169.984-90.112-133.12 0-227.328 112.64-227.328 262.144 0 182.272 118.784 284.672 241.664 284.672 92.16 0 143.36-49.152 167.936-92.16h2.048l4.096 79.872h81.92zM1224.704 515.584c0 16.384-2.048 30.72-6.144 45.056-18.432 57.344-65.536 102.4-137.216 102.4-92.16 0-159.744-77.824-159.744-202.752 0-104.448 53.248-192.512 157.696-192.512 59.392 0 114.688 36.864 135.168 100.352 6.144 16.384 8.192 34.816 8.192 51.2v96.256z" />
<glyph unicode="&#xe929;" glyph-name="math_d" horiz-adv-x="778" d="M665.6 929.28v-804.864c0-59.392 2.048-126.976 6.144-172.032h-112.64l-6.144 114.688h-2.048c-38.912-73.728-122.88-131.072-235.52-131.072-167.936 0-296.96 135.168-296.96 337.92-4.096 223.232 139.264 358.4 309.248 358.4 106.496 0 178.176-49.152 208.896-102.4h2.048v399.36h126.976zM538.624 347.648c0 14.336-2.048 34.816-6.144 51.2-18.432 77.824-88.064 139.264-182.272 139.264-129.024 0-206.848-110.592-206.848-258.048 0-135.168 69.632-245.76 204.8-245.76 83.968 0 161.792 53.248 184.32 145.408 4.096 16.384 6.144 32.768 6.144 53.248v114.688z" />
<glyph unicode="&#xe92a;" glyph-name="math_krt-an" d="M46.545 375.389v29.789h137.775v-29.789h-137.775zM152.669 397.731l33.513 7.447 68.887-448.698-33.513-7.447-68.887 448.698zM290.444 848.291v37.236h633.018v-37.236h-633.018zM290.444 885.527l33.513-3.724-68.887-936.495-33.513 3.724 68.887 936.495zM556.684-60.276c-52.131 0-96.815 11.171-135.913 35.375s-68.887 57.716-91.229 102.4c-20.48 44.684-31.651 94.953-31.651 154.531s11.171 111.709 33.513 156.393c22.342 44.684 52.131 78.196 91.229 104.262 39.098 24.204 83.782 37.236 135.913 37.236 53.993 0 98.676-13.033 135.913-39.098s63.302-61.44 76.335-109.847l-14.895-9.309v143.36h93.091v-567.855h-93.091v147.084l14.895-7.447c-13.033-46.545-39.098-83.782-76.335-109.847s-83.782-37.236-137.775-37.236zM575.302 14.196c57.716 0 102.4 18.618 132.189 57.716 31.651 37.236 46.545 91.229 46.545 161.978s-14.895 124.742-46.545 161.978c-31.651 37.236-76.335 55.855-132.189 55.855-57.716 0-102.4-18.618-134.051-57.716s-48.407-93.091-48.407-161.978c0-68.887 16.756-122.88 48.407-160.116 31.651-39.098 78.196-57.716 134.051-57.716zM787.549 716.102c0 26.065 0 48.407-1.862 67.025h61.44l3.724-29.789h1.862c9.309 13.033 33.513 33.513 70.749 33.513 46.545 0 81.92-27.927 81.92-91.229v-126.604h-70.749v117.295c0 27.927-11.171 46.545-35.375 46.545-20.48 0-31.651-13.033-35.375-24.204-1.862-3.724-3.724-11.171-3.724-16.756v-122.88h-70.749v147.084zM93.091 557.847v0c5.585 9.309 11.171 16.756 16.756 26.065l42.822 65.164h80.058l-76.335-87.505 87.505-128.465h-81.92l-52.131 87.505-16.756-20.48v-67.025h-67.025v312.785h67.025v-188.044z" />
<glyph unicode="&#xe92b;" glyph-name="math_log-a-b-c" horiz-adv-x="1707" d="M1124.693 405.333v29.013h580.267v-29.013h-580.267zM1297.067 507.733v406.187h68.267v-192.853l-6.827 8.533c5.12 20.48 17.067 35.84 34.133 47.787s37.547 17.067 61.44 17.067c23.893 0 46.080-5.12 64.853-17.067s32.427-29.013 44.373-49.493c10.24-22.187 15.36-47.787 15.36-76.8s-5.12-54.613-15.36-76.8c-10.24-23.893-25.6-40.96-44.373-52.907s-39.253-17.067-64.853-17.067c-23.893 0-44.373 5.12-61.44 17.067s-29.013 27.307-34.133 47.787l6.827 10.24v-69.973h-68.267zM1437.013 557.227c22.187 0 40.96 8.533 52.907 23.893s18.773 39.253 18.773 68.267c0 29.013-6.827 51.2-18.773 66.56s-30.72 23.893-52.907 23.893c-23.893 0-40.96-8.533-52.907-23.893s-18.773-37.547-18.773-66.56c0-29.013 6.827-51.2 18.773-68.267s30.72-23.893 52.907-23.893zM1.707 232.96v479.573h81.92v-479.573h-81.92zM320.853 229.547c-34.133 0-63.147 6.827-88.747 20.48s-44.373 34.133-58.027 59.733-20.48 56.32-20.48 90.453c0 34.133 6.827 64.853 20.48 90.453s32.427 46.080 58.027 59.733c25.6 13.653 54.613 20.48 88.747 20.48s63.147-6.827 87.040-20.48c25.6-13.653 44.373-34.133 58.027-59.733s20.48-56.32 20.48-90.453c0-35.84-6.827-64.853-20.48-90.453s-32.427-44.373-58.027-59.733c-23.893-13.653-52.907-20.48-87.040-20.48zM320.853 290.987c27.307 0 47.787 8.533 61.44 27.307 15.36 18.773 22.187 44.373 22.187 80.213s-6.827 63.147-22.187 80.213c-15.36 18.773-35.84 27.307-61.44 27.307-27.307 0-47.787-8.533-63.147-27.307s-22.187-44.373-22.187-80.213c0-35.84 6.827-63.147 22.187-80.213 13.653-17.067 35.84-27.307 63.147-27.307zM708.267 87.893c-51.2 0-95.573 10.24-133.12 30.72l13.653 61.44c20.48-10.24 39.253-18.773 59.733-23.893 18.773-5.12 39.253-6.827 59.733-6.827 29.013 0 51.2 6.827 66.56 22.187 15.36 13.653 22.187 35.84 22.187 64.853v81.92h5.12c-5.12-13.653-13.653-27.307-23.893-37.547-10.24-11.947-23.893-20.48-39.253-27.307s-32.427-10.24-51.2-10.24c-29.013 0-54.613 6.827-76.8 20.48s-39.253 32.427-51.2 56.32c-11.947 23.893-18.773 52.907-18.773 87.040 0 32.427 6.827 61.44 18.773 87.040 11.947 23.893 29.013 44.373 51.2 58.027s47.787 20.48 76.8 20.48c29.013 0 52.907-6.827 73.387-20.48s34.133-32.427 42.667-56.32l-8.533-1.707v69.973h80.213v-317.44c0-51.2-13.653-90.453-42.667-116.053-29.013-29.013-69.973-42.667-124.587-42.667zM708.267 306.347c27.307 0 47.787 8.533 63.147 27.307 15.36 17.067 22.187 42.667 22.187 73.387s-6.827 56.32-22.187 73.387c-15.36 17.067-35.84 27.307-63.147 27.307s-49.493-8.533-64.853-27.307c-15.36-17.067-23.893-42.667-23.893-73.387s8.533-56.32 23.893-73.387c17.067-18.773 37.547-27.307 64.853-27.307zM962.56-11.093c-18.773 0-35.84 5.12-49.493 13.653-15.36 8.533-25.6 22.187-34.133 39.253s-11.947 37.547-11.947 59.733c0 23.893 3.413 42.667 11.947 61.44 8.533 17.067 20.48 30.72 34.133 40.96 15.36 10.24 30.72 15.36 49.493 15.36 17.067 0 32.427-3.413 44.373-11.947 13.653-8.533 22.187-18.773 27.307-32.427l-5.12-3.413v40.96h76.8v-220.16h-76.8v40.96h5.12c-5.12-13.653-13.653-23.893-27.307-32.427-11.947-8.533-27.307-11.947-44.373-11.947zM986.453 46.933c13.653 0 23.893 5.12 32.427 13.653 6.827 10.24 11.947 23.893 11.947 40.96 0 18.773-3.413 32.427-11.947 42.667-6.827 10.24-18.773 13.653-32.427 13.653s-23.893-5.12-32.427-15.36-11.947-23.893-11.947-42.667c0-17.067 3.413-30.72 11.947-40.96 8.533-6.827 18.773-11.947 32.427-11.947zM1409.707-48.64c-30.72 0-58.027 6.827-80.213 22.187s-40.96 35.84-52.907 63.147c-11.947 27.307-18.773 59.733-18.773 95.573 0 37.547 6.827 69.973 18.773 97.28s30.72 49.493 54.613 64.853c23.893 15.36 51.2 23.893 81.92 23.893 20.48 0 40.96-3.413 61.44-11.947s35.84-18.773 49.493-32.427l-22.187-61.44c-11.947 11.947-25.6 22.187-40.96 27.307-13.653 6.827-29.013 10.24-42.667 10.24-25.6 0-46.080-10.24-61.44-29.013s-22.187-47.787-22.187-85.333c0-37.547 6.827-66.56 22.187-85.333s35.84-29.013 63.147-29.013c13.653 0 27.307 3.413 42.667 10.24 13.653 6.827 27.307 15.36 40.96 29.013l22.187-61.44c-13.653-13.653-29.013-25.6-49.493-32.427-23.893-11.947-44.373-15.36-66.56-15.36z" />
<glyph unicode="&#xe92c;" glyph-name="math_log-am-b" horiz-adv-x="2048" d="M1585.152 83.456v632.832h106.496v-301.056l-8.192 12.288c8.192 30.72 26.624 55.296 53.248 73.728s59.392 26.624 96.256 26.624c38.912 0 71.68-8.192 100.352-26.624s51.2-45.056 67.584-77.824c16.384-34.816 24.576-73.728 24.576-118.784s-8.192-86.016-24.576-118.784c-16.384-34.816-38.912-61.44-67.584-79.872s-61.44-28.672-100.352-28.672c-36.864 0-67.584 8.192-96.256 26.624-26.624 18.432-45.056 43.008-53.248 73.728l10.24 16.384v-110.592h-108.544zM1804.288 159.232c34.816 0 63.488 12.288 81.92 36.864 20.48 24.576 28.672 61.44 28.672 106.496s-10.24 79.872-28.672 104.448c-20.48 24.576-47.104 36.864-81.92 36.864-36.864 0-65.536-12.288-83.968-36.864s-28.672-59.392-28.672-104.448c0-45.056 10.24-81.92 28.672-106.496 20.48-24.576 49.152-36.864 83.968-36.864zM18.432 169.472v575.488h98.304v-575.488h-98.304zM401.408 165.376c-40.96 0-75.776 8.192-106.496 24.576s-53.248 40.96-69.632 71.68c-16.384 30.72-24.576 67.584-24.576 108.544s8.192 77.824 24.576 108.544c16.384 30.72 38.912 55.296 69.632 71.68s65.536 24.576 106.496 24.576c40.96 0 75.776-8.192 104.448-24.576 30.72-16.384 53.248-40.96 69.632-71.68s24.576-67.584 24.576-108.544c0-43.008-8.192-77.824-24.576-108.544s-38.912-53.248-69.632-71.68c-28.672-16.384-63.488-24.576-104.448-24.576zM401.408 239.104c32.768 0 57.344 10.24 73.728 32.768 18.432 22.528 26.624 53.248 26.624 96.256s-8.192 75.776-26.624 96.256c-18.432 22.528-43.008 32.768-73.728 32.768-32.768 0-57.344-10.24-75.776-32.768s-26.624-53.248-26.624-96.256c0-43.008 8.192-75.776 26.624-96.256s43.008-32.768 75.776-32.768zM866.304-4.608c-61.44 0-114.688 12.288-159.744 36.864l16.384 73.728c24.576-12.288 47.104-22.528 71.68-28.672 22.528-6.144 47.104-8.192 71.68-8.192 34.816 0 61.44 8.192 79.872 26.624 18.432 16.384 26.624 43.008 26.624 77.824v98.304h10.24c-6.144-16.384-16.384-32.768-28.672-45.056-12.288-14.336-28.672-24.576-47.104-32.768s-38.912-12.288-61.44-12.288c-34.816 0-65.536 8.192-92.16 24.576s-47.104 38.912-61.44 67.584c-14.336 28.672-22.528 63.488-22.528 104.448 0 38.912 8.192 73.728 22.528 104.448 14.336 28.672 34.816 53.248 61.44 69.632s57.344 24.576 92.16 24.576c34.816 0 63.488-8.192 88.064-24.576s40.96-38.912 51.2-67.584l-10.24-2.048v83.968h96.256v-380.928c0-61.44-16.384-108.544-51.2-139.264-38.912-34.816-88.064-51.2-153.6-51.2zM866.304 257.536c32.768 0 57.344 10.24 75.776 32.768 18.432 20.48 26.624 51.2 26.624 88.064s-8.192 67.584-26.624 88.064c-18.432 20.48-43.008 32.768-75.776 32.768s-59.392-10.24-77.824-32.768c-18.432-20.48-28.672-51.2-28.672-88.064s10.24-67.584 28.672-88.064c18.432-22.528 45.056-32.768 77.824-32.768zM1179.648-12.8c-20.48 0-38.912 4.096-55.296 14.336s-28.672 24.576-36.864 43.008c-8.192 18.432-14.336 40.96-14.336 65.536s4.096 47.104 14.336 67.584c8.192 18.432 22.528 34.816 36.864 45.056 16.384 10.24 34.816 16.384 55.296 16.384 18.432 0 34.816-4.096 49.152-14.336 14.336-8.192 24.576-20.48 30.72-34.816l-6.144-4.096v45.056h83.968v-241.664h-83.968v45.056h6.144c-6.144-14.336-16.384-26.624-30.72-34.816s-30.72-12.288-49.152-12.288zM1206.272 52.736c14.336 0 26.624 6.144 34.816 16.384s12.288 24.576 12.288 45.056c0 20.48-4.096 34.816-12.288 45.056s-20.48 16.384-34.816 16.384c-14.336 0-26.624-6.144-34.816-16.384s-12.288-26.624-12.288-47.104c0-18.432 4.096-34.816 12.288-45.056s20.48-14.336 34.816-14.336zM1357.824 235.008v96.256c0 6.144 0 12.288 0 20.48 0 6.144 0 12.288-2.048 18.432h45.056l4.096-24.576-4.096 2.048c4.096 8.192 10.24 14.336 18.432 20.48 8.192 4.096 16.384 8.192 26.624 8.192 12.288 0 22.528-4.096 28.672-10.24s12.288-16.384 14.336-28.672l-6.144 8.192c4.096 8.192 10.24 16.384 18.432 20.48s18.432 8.192 28.672 8.192c16.384 0 26.624-4.096 34.816-14.336s10.24-24.576 10.24-43.008v-79.872h-49.152v79.872c0 8.192-2.048 14.336-4.096 16.384-2.048 4.096-6.144 6.144-12.288 6.144s-12.288-2.048-16.384-8.192c-4.096-4.096-6.144-12.288-6.144-20.48v-73.728h-49.152v79.872c0 8.192-2.048 14.336-4.096 16.384-2.048 4.096-6.144 6.144-12.288 6.144s-12.288-2.048-16.384-8.192c-4.096-4.096-6.144-12.288-6.144-20.48v-73.728h-40.96z" />
<glyph unicode="&#xe92d;" glyph-name="math_log-a-1" horiz-adv-x="1638" d="M6.144 189.952v575.488h98.304v-575.488h-98.304zM389.12 185.856c-40.96 0-75.776 8.192-106.496 24.576s-53.248 40.96-69.632 71.68-24.576 67.584-24.576 108.544c0 40.96 8.192 77.824 24.576 108.544s38.912 55.296 69.632 71.68c30.72 16.384 65.536 24.576 106.496 24.576s75.776-8.192 104.448-24.576c30.72-16.384 53.248-40.96 69.632-71.68s24.576-67.584 24.576-108.544c0-43.008-8.192-77.824-24.576-108.544s-38.912-53.248-69.632-71.68c-28.672-16.384-65.536-24.576-104.448-24.576zM389.12 259.584c32.768 0 57.344 10.24 73.728 32.768 18.432 22.528 26.624 53.248 26.624 96.256s-8.192 75.776-26.624 96.256c-18.432 22.528-43.008 32.768-73.728 32.768-32.768 0-57.344-10.24-75.776-32.768s-26.624-53.248-26.624-96.256c0-43.008 8.192-75.776 26.624-96.256 16.384-20.48 43.008-32.768 75.776-32.768zM851.968 15.872c-61.44 0-114.688 12.288-159.744 36.864l16.384 73.728c24.576-12.288 47.104-22.528 71.68-28.672 22.528-6.144 47.104-8.192 71.68-8.192 34.816 0 61.44 8.192 79.872 26.624 18.432 16.384 26.624 43.008 26.624 77.824v98.304h10.24c-6.144-16.384-16.384-32.768-28.672-45.056-12.288-14.336-28.672-24.576-47.104-32.768s-38.912-12.288-61.44-12.288c-34.816 0-65.536 8.192-92.16 24.576s-47.104 38.912-61.44 67.584c-14.336 28.672-22.528 63.488-22.528 104.448 0 38.912 8.192 73.728 22.528 104.448 14.336 28.672 34.816 53.248 61.44 69.632s57.344 24.576 92.16 24.576c34.816 0 63.488-8.192 88.064-24.576s40.96-38.912 51.2-67.584l-10.24-2.048v83.968h96.256v-380.928c0-61.44-16.384-108.544-51.2-139.264-36.864-34.816-86.016-51.2-153.6-51.2zM854.016 278.016c32.768 0 57.344 10.24 75.776 32.768 18.432 20.48 26.624 51.2 26.624 88.064s-8.192 67.584-26.624 88.064c-18.432 20.48-43.008 32.768-75.776 32.768s-59.392-10.24-77.824-32.768c-18.432-20.48-28.672-51.2-28.672-88.064s10.24-67.584 28.672-88.064c18.432-22.528 45.056-32.768 77.824-32.768zM1200.128 19.968c-22.528 0-43.008 6.144-59.392 16.384-18.432 10.24-30.72 26.624-40.96 47.104s-14.336 45.056-14.336 71.68c0 28.672 4.096 51.2 14.336 73.728 10.24 20.48 24.576 36.864 40.96 49.152 18.432 12.288 36.864 18.432 59.392 18.432 20.48 0 38.912-4.096 53.248-14.336 16.384-10.24 26.624-22.528 32.768-38.912l-6.144-4.096v49.152h92.16v-264.192h-92.16v49.152h6.144c-6.144-16.384-16.384-28.672-32.768-38.912s-32.768-14.336-53.248-14.336zM1228.8 89.6c16.384 0 28.672 6.144 38.912 16.384 8.192 12.288 14.336 28.672 14.336 49.152 0 22.528-4.096 38.912-14.336 51.2-8.192 12.288-22.528 16.384-38.912 16.384s-28.672-6.144-38.912-18.432-14.336-28.672-14.336-51.2c0-20.48 4.096-36.864 14.336-49.152 8.192-8.192 22.528-14.336 38.912-14.336zM1472.512 701.952h-2.048l-131.072-63.488-20.48 69.632 165.888 77.824h88.064v-671.744h-98.304v587.776z" />
<glyph unicode="&#xe92e;" glyph-name="math_log-a-a" horiz-adv-x="1843" d="M6.144 169.472v575.488h98.304v-575.488h-98.304zM389.12 165.376c-40.96 0-75.776 8.192-106.496 24.576s-53.248 40.96-69.632 71.68c-16.384 30.72-24.576 67.584-24.576 108.544s8.192 77.824 24.576 108.544c16.384 30.72 38.912 55.296 69.632 71.68s65.536 24.576 106.496 24.576c40.96 0 75.776-8.192 104.448-24.576 30.72-16.384 53.248-40.96 69.632-71.68s24.576-67.584 24.576-108.544c0-43.008-8.192-77.824-24.576-108.544s-38.912-53.248-69.632-71.68c-28.672-16.384-65.536-24.576-104.448-24.576zM389.12 239.104c32.768 0 57.344 10.24 73.728 32.768 18.432 22.528 26.624 53.248 26.624 96.256s-8.192 75.776-26.624 96.256c-18.432 22.528-43.008 32.768-73.728 32.768-32.768 0-57.344-10.24-75.776-32.768s-26.624-53.248-26.624-96.256c0-43.008 8.192-75.776 26.624-96.256s43.008-32.768 75.776-32.768zM851.968-4.608c-61.44 0-114.688 12.288-159.744 36.864l16.384 73.728c24.576-12.288 47.104-22.528 71.68-28.672 22.528-6.144 47.104-8.192 71.68-8.192 34.816 0 61.44 8.192 79.872 26.624 18.432 16.384 26.624 43.008 26.624 77.824v98.304h10.24c-6.144-16.384-16.384-32.768-28.672-45.056-12.288-14.336-28.672-24.576-47.104-32.768s-38.912-12.288-61.44-12.288c-34.816 0-65.536 8.192-92.16 24.576s-47.104 38.912-61.44 67.584c-14.336 28.672-22.528 63.488-22.528 104.448 0 38.912 8.192 73.728 22.528 104.448 14.336 28.672 34.816 53.248 61.44 69.632s57.344 24.576 92.16 24.576c34.816 0 63.488-8.192 88.064-24.576s40.96-38.912 51.2-67.584l-10.24-2.048v83.968h96.256v-380.928c0-61.44-16.384-108.544-51.2-139.264-36.864-34.816-86.016-51.2-153.6-51.2zM854.016 257.536c32.768 0 57.344 10.24 75.776 32.768 18.432 20.48 26.624 51.2 26.624 88.064s-8.192 67.584-26.624 88.064c-18.432 20.48-43.008 32.768-75.776 32.768s-59.392-10.24-77.824-32.768c-18.432-20.48-28.672-51.2-28.672-88.064s10.24-67.584 28.672-88.064c18.432-22.528 45.056-32.768 77.824-32.768zM1179.648-41.472c-22.528 0-43.008 6.144-59.392 16.384-18.432 10.24-30.72 26.624-40.96 47.104s-14.336 45.056-14.336 71.68c0 28.672 4.096 51.2 14.336 73.728 10.24 20.48 24.576 36.864 40.96 49.152 18.432 12.288 36.864 18.432 59.392 18.432 20.48 0 38.912-4.096 53.248-14.336 16.384-10.24 26.624-22.528 32.768-38.912l-6.144-4.096v49.152h92.16v-264.192h-92.16v49.152h6.144c-6.144-16.384-16.384-28.672-32.768-38.912s-32.768-14.336-53.248-14.336zM1208.32 28.16c16.384 0 28.672 6.144 38.912 16.384 8.192 12.288 14.336 28.672 14.336 49.152 0 22.528-4.096 38.912-14.336 51.2-8.192 12.288-22.528 16.384-38.912 16.384s-28.672-6.144-38.912-18.432-14.336-28.672-14.336-51.2c0-20.48 4.096-36.864 14.336-49.152 8.192-8.192 22.528-14.336 38.912-14.336zM1540.096 159.232c-36.864 0-71.68 8.192-100.352 26.624s-51.2 43.008-67.584 77.824-22.528 71.68-22.528 116.736c0 45.056 8.192 86.016 24.576 118.784 16.384 34.816 38.912 61.44 67.584 79.872s61.44 28.672 100.352 28.672c36.864 0 67.584-8.192 96.256-26.624 26.624-18.432 45.056-43.008 55.296-75.776l-14.336-4.096v96.256h104.448v-432.128h-104.448v98.304l10.24-4.096c-10.24-32.768-28.672-57.344-55.296-73.728-26.624-18.432-59.392-26.624-94.208-26.624zM1568.768 241.152c34.816 0 63.488 12.288 81.92 36.864s28.672 59.392 28.672 104.448c0 47.104-10.24 81.92-28.672 106.496s-47.104 36.864-81.92 36.864c-36.864 0-63.488-12.288-83.968-36.864s-30.72-61.44-30.72-106.496c0-45.056 10.24-79.872 30.72-102.4 20.48-26.624 47.104-38.912 83.968-38.912z" />
<glyph unicode="&#xe92f;" glyph-name="math_log-a-ac" horiz-adv-x="2048" d="M67.584 148.992v575.488h98.304v-575.488h-98.304zM450.56 144.896c-40.96 0-75.776 8.192-106.496 24.576s-53.248 40.96-69.632 71.68c-16.384 30.72-24.576 67.584-24.576 108.544s8.192 77.824 24.576 108.544c16.384 30.72 38.912 55.296 69.632 71.68s65.536 24.576 106.496 24.576c40.96 0 75.776-8.192 104.448-24.576 30.72-16.384 53.248-40.96 69.632-71.68s24.576-67.584 24.576-108.544c0-43.008-8.192-77.824-24.576-108.544s-38.912-53.248-69.632-71.68c-28.672-16.384-65.536-24.576-104.448-24.576zM450.56 218.624c32.768 0 57.344 10.24 73.728 32.768 18.432 22.528 26.624 53.248 26.624 96.256s-8.192 75.776-26.624 96.256c-18.432 22.528-43.008 32.768-73.728 32.768-32.768 0-57.344-10.24-75.776-32.768s-26.624-53.248-26.624-96.256c0-43.008 8.192-75.776 26.624-96.256s43.008-32.768 75.776-32.768zM913.408-25.088c-61.44 0-114.688 12.288-159.744 36.864l16.384 73.728c24.576-12.288 47.104-22.528 71.68-28.672 22.528-6.144 47.104-8.192 71.68-8.192 34.816 0 61.44 8.192 79.872 26.624 18.432 16.384 26.624 43.008 26.624 77.824v98.304h10.24c-6.144-16.384-16.384-32.768-28.672-45.056-12.288-14.336-28.672-24.576-47.104-32.768s-38.912-12.288-61.44-12.288c-34.816 0-65.536 8.192-92.16 24.576s-47.104 38.912-61.44 67.584c-14.336 28.672-22.528 63.488-22.528 104.448 0 38.912 8.192 73.728 22.528 104.448 14.336 28.672 34.816 53.248 61.44 69.632s57.344 24.576 92.16 24.576c34.816 0 63.488-8.192 88.064-24.576s40.96-38.912 51.2-67.584l-10.24-2.048v83.968h96.256v-380.928c0-61.44-16.384-108.544-51.2-139.264-36.864-34.816-86.016-51.2-153.6-51.2zM915.456 237.056c32.768 0 57.344 10.24 75.776 32.768 18.432 20.48 26.624 51.2 26.624 88.064s-8.192 67.584-26.624 88.064c-18.432 20.48-43.008 32.768-75.776 32.768s-59.392-10.24-77.824-32.768c-18.432-20.48-28.672-51.2-28.672-88.064s10.24-67.584 28.672-88.064c18.432-22.528 45.056-32.768 77.824-32.768zM1228.8-53.76c-20.48 0-38.912 4.096-55.296 14.336s-28.672 24.576-36.864 43.008c-8.192 18.432-14.336 40.96-14.336 65.536s4.096 47.104 14.336 67.584c8.192 18.432 22.528 34.816 36.864 45.056 16.384 10.24 34.816 16.384 55.296 16.384 18.432 0 34.816-4.096 49.152-14.336 14.336-8.192 24.576-20.48 30.72-34.816l-6.144-4.096v45.056h83.968v-241.664h-83.968v45.056h6.144c-6.144-14.336-16.384-26.624-30.72-34.816s-30.72-12.288-49.152-12.288zM1255.424 11.776c14.336 0 26.624 6.144 34.816 16.384s12.288 24.576 12.288 45.056c0 20.48-4.096 34.816-12.288 45.056s-20.48 16.384-34.816 16.384c-14.336 0-26.624-6.144-34.816-16.384s-12.288-26.624-12.288-47.104c0-18.432 4.096-34.816 12.288-45.056s20.48-14.336 34.816-14.336zM1560.576 138.752c-36.864 0-71.68 8.192-100.352 26.624s-51.2 43.008-67.584 77.824-22.528 71.68-22.528 116.736c0 45.056 8.192 86.016 24.576 118.784 16.384 34.816 38.912 61.44 67.584 79.872s61.44 28.672 100.352 28.672c36.864 0 67.584-8.192 96.256-26.624 26.624-18.432 45.056-43.008 55.296-75.776l-14.336-4.096v96.256h104.448v-432.128h-104.448v98.304l10.24-4.096c-10.24-32.768-28.672-57.344-55.296-73.728-26.624-18.432-59.392-26.624-94.208-26.624zM1589.248 220.672c34.816 0 63.488 12.288 81.92 36.864s28.672 59.392 28.672 104.448c0 47.104-10.24 81.92-28.672 106.496s-47.104 36.864-81.92 36.864c-36.864 0-63.488-12.288-83.968-36.864s-30.72-61.44-30.72-106.496c0-45.056 10.24-79.872 30.72-102.4 20.48-26.624 47.104-38.912 83.968-38.912zM1931.264 574.976c-28.672 0-53.248 6.144-73.728 16.384-20.48 12.288-36.864 26.624-47.104 49.152s-16.384 45.056-16.384 73.728c0 28.672 6.144 53.248 16.384 75.776 12.288 22.528 28.672 38.912 49.152 51.2s47.104 18.432 75.776 18.432c18.432 0 36.864-4.096 55.296-10.24s32.768-14.336 45.056-24.576l-20.48-47.104c-12.288 10.24-24.576 16.384-36.864 20.48s-26.624 8.192-38.912 8.192c-24.576 0-43.008-8.192-57.344-22.528s-20.48-36.864-20.48-67.584c0-28.672 6.144-51.2 20.48-65.536s32.768-22.528 57.344-22.528c12.288 0 24.576 2.048 38.912 8.192 12.288 4.096 24.576 12.288 36.864 22.528l20.48-47.104c-12.288-10.24-26.624-18.432-45.056-24.576-18.432-10.24-38.912-12.288-59.392-12.288z" />
<glyph unicode="&#xe930;" glyph-name="math_log-a-b" horiz-adv-x="1843" d="M1378.304 128.512v591.872h100.352v-282.624l-8.192 12.288c8.192 28.672 24.576 51.2 51.2 69.632 24.576 16.384 55.296 26.624 90.112 26.624 36.864 0 67.584-8.192 94.208-26.624 26.624-16.384 47.104-40.96 63.488-73.728 16.384-30.72 22.528-69.632 22.528-110.592s-10.24-79.872-24.576-112.64c-16.384-32.768-36.864-57.344-63.488-73.728-26.624-18.432-57.344-26.624-94.208-26.624-34.816 0-63.488 8.192-90.112 24.576-24.576 16.384-43.008 38.912-51.2 69.632l8.192 14.336v-102.4h-98.304zM1583.104 200.192c32.768 0 59.392 12.288 77.824 34.816 18.432 24.576 26.624 57.344 26.624 100.352 0 40.96-8.192 73.728-26.624 96.256s-43.008 34.816-77.824 34.816c-34.816 0-61.44-12.288-77.824-34.816s-26.624-55.296-26.624-98.304c0-43.008 8.192-75.776 26.624-98.304 18.432-24.576 43.008-34.816 77.824-34.816zM20.48 148.992v575.488h98.304v-575.488h-98.304zM403.456 144.896c-40.96 0-75.776 8.192-106.496 24.576s-53.248 40.96-69.632 71.68-24.576 67.584-24.576 108.544c0 40.96 8.192 77.824 24.576 108.544s38.912 55.296 69.632 71.68c30.72 16.384 65.536 24.576 106.496 24.576s75.776-8.192 104.448-24.576c30.72-16.384 53.248-40.96 69.632-71.68s24.576-67.584 24.576-108.544c0-43.008-8.192-77.824-24.576-108.544s-38.912-53.248-69.632-71.68c-30.72-16.384-65.536-24.576-104.448-24.576zM403.456 218.624c32.768 0 57.344 10.24 73.728 32.768 18.432 22.528 26.624 53.248 26.624 96.256s-8.192 75.776-26.624 96.256c-18.432 22.528-43.008 32.768-73.728 32.768-32.768 0-57.344-10.24-75.776-32.768s-26.624-53.248-26.624-96.256c0-43.008 8.192-75.776 26.624-96.256 16.384-20.48 40.96-32.768 75.776-32.768zM866.304-25.088c-61.44 0-114.688 12.288-159.744 36.864l16.384 73.728c24.576-12.288 47.104-22.528 71.68-28.672 22.528-6.144 47.104-8.192 71.68-8.192 34.816 0 61.44 8.192 79.872 26.624 18.432 16.384 26.624 43.008 26.624 77.824v98.304h10.24c-6.144-16.384-16.384-32.768-28.672-45.056-12.288-14.336-28.672-24.576-47.104-32.768s-38.912-12.288-61.44-12.288c-34.816 0-65.536 8.192-92.16 24.576s-47.104 38.912-61.44 67.584c-14.336 28.672-22.528 63.488-22.528 104.448 0 38.912 8.192 73.728 22.528 104.448 14.336 28.672 34.816 53.248 61.44 69.632s57.344 24.576 92.16 24.576c34.816 0 63.488-8.192 88.064-24.576s40.96-38.912 51.2-67.584l-10.24-2.048v83.968h96.256v-380.928c0-61.44-16.384-108.544-51.2-139.264-36.864-34.816-88.064-51.2-153.6-51.2zM866.304 237.056c32.768 0 57.344 10.24 75.776 32.768 18.432 20.48 26.624 51.2 26.624 88.064s-8.192 67.584-26.624 88.064c-18.432 20.48-43.008 32.768-75.776 32.768s-59.392-10.24-77.824-32.768c-18.432-20.48-28.672-51.2-28.672-88.064s10.24-67.584 28.672-88.064c20.48-22.528 45.056-32.768 77.824-32.768zM1191.936-41.472c-22.528 0-43.008 6.144-59.392 16.384-18.432 10.24-30.72 26.624-40.96 47.104s-14.336 45.056-14.336 71.68c0 28.672 4.096 51.2 14.336 73.728 10.24 20.48 24.576 36.864 40.96 49.152 18.432 12.288 36.864 18.432 59.392 18.432 20.48 0 38.912-4.096 53.248-14.336 16.384-10.24 26.624-22.528 32.768-38.912l-6.144-4.096v49.152h92.16v-264.192h-92.16v49.152h6.144c-6.144-16.384-16.384-28.672-32.768-38.912-14.336-10.24-32.768-14.336-53.248-14.336zM1222.656 28.16c16.384 0 28.672 6.144 38.912 16.384 8.192 12.288 14.336 28.672 14.336 49.152 0 22.528-4.096 38.912-14.336 51.2-8.192 12.288-22.528 16.384-38.912 16.384s-28.672-6.144-38.912-18.432-14.336-28.672-14.336-51.2c0-20.48 4.096-36.864 14.336-49.152 8.192-8.192 20.48-14.336 38.912-14.336z" />
<glyph unicode="&#xe931;" glyph-name="math_log-a-bq" horiz-adv-x="2095" d="M1458.176 83.456v632.832h106.496v-301.056l-8.192 12.288c8.192 30.72 26.624 55.296 53.248 73.728s59.392 26.624 96.256 26.624c38.912 0 71.68-8.192 100.352-26.624s51.2-45.056 67.584-77.824c16.384-34.816 24.576-73.728 24.576-118.784s-8.192-86.016-24.576-118.784c-16.384-34.816-38.912-61.44-67.584-79.872s-61.44-28.672-100.352-28.672c-36.864 0-67.584 8.192-96.256 26.624-26.624 18.432-45.056 43.008-53.248 73.728l10.24 16.384v-110.592h-108.544zM1677.312 159.232c34.816 0 63.488 12.288 81.92 36.864 20.48 24.576 28.672 61.44 28.672 106.496s-10.24 79.872-28.672 104.448c-20.48 24.576-47.104 36.864-81.92 36.864-36.864 0-65.536-12.288-83.968-36.864s-28.672-59.392-28.672-104.448c0-45.056 10.24-81.92 28.672-106.496 20.48-24.576 49.152-36.864 83.968-36.864zM34.816 148.992v575.488h98.304v-575.488h-98.304zM417.792 144.896c-40.96 0-75.776 8.192-106.496 24.576s-53.248 40.96-69.632 71.68-24.576 67.584-24.576 108.544c0 40.96 8.192 77.824 24.576 108.544s38.912 55.296 69.632 71.68c30.72 16.384 65.536 24.576 106.496 24.576s75.776-8.192 104.448-24.576c30.72-16.384 53.248-40.96 69.632-71.68s24.576-67.584 24.576-108.544c0-43.008-8.192-77.824-24.576-108.544s-38.912-53.248-69.632-71.68c-28.672-16.384-63.488-24.576-104.448-24.576zM417.792 218.624c32.768 0 57.344 10.24 73.728 32.768 18.432 22.528 26.624 53.248 26.624 96.256s-8.192 75.776-26.624 96.256c-18.432 22.528-43.008 32.768-73.728 32.768-32.768 0-57.344-10.24-75.776-32.768s-26.624-53.248-26.624-96.256c0-43.008 8.192-75.776 26.624-96.256 16.384-20.48 43.008-32.768 75.776-32.768zM882.688-25.088c-61.44 0-114.688 12.288-159.744 36.864l16.384 73.728c24.576-12.288 47.104-22.528 71.68-28.672 22.528-6.144 47.104-8.192 71.68-8.192 34.816 0 61.44 8.192 79.872 26.624 18.432 16.384 26.624 43.008 26.624 77.824v98.304h10.24c-6.144-16.384-16.384-32.768-28.672-45.056-12.288-14.336-28.672-24.576-47.104-32.768s-38.912-12.288-61.44-12.288c-34.816 0-65.536 8.192-92.16 24.576s-47.104 38.912-61.44 67.584c-14.336 28.672-22.528 63.488-22.528 104.448 0 38.912 8.192 73.728 22.528 104.448 14.336 28.672 34.816 53.248 61.44 69.632s57.344 24.576 92.16 24.576c34.816 0 63.488-8.192 88.064-24.576s40.96-38.912 51.2-67.584l-10.24-2.048v83.968h96.256v-380.928c0-61.44-16.384-108.544-51.2-139.264-38.912-34.816-88.064-51.2-153.6-51.2zM882.688 237.056c32.768 0 57.344 10.24 75.776 32.768 18.432 20.48 26.624 51.2 26.624 88.064s-8.192 67.584-26.624 88.064c-18.432 20.48-43.008 32.768-75.776 32.768s-59.392-10.24-77.824-32.768c-18.432-20.48-28.672-51.2-28.672-88.064s10.24-67.584 28.672-88.064c18.432-22.528 45.056-32.768 77.824-32.768zM1232.896-41.472c-22.528 0-43.008 6.144-61.44 16.384s-30.72 26.624-40.96 47.104c-10.24 20.48-14.336 43.008-14.336 71.68s4.096 51.2 14.336 71.68c10.24 20.48 22.528 36.864 40.96 49.152s36.864 16.384 61.44 16.384c22.528 0 40.96-6.144 57.344-16.384s26.624-26.624 32.768-45.056l-6.144-4.096v59.392h63.488v-262.144h-63.488v59.392l6.144-2.048c-6.144-18.432-16.384-34.816-32.768-45.056s-34.816-16.384-57.344-16.384zM1251.328 9.728c20.48 0 38.912 8.192 49.152 22.528 12.288 14.336 18.432 36.864 18.432 63.488 0 28.672-6.144 49.152-18.432 63.488s-28.672 22.528-49.152 22.528c-22.528 0-38.912-8.192-51.2-22.528s-18.432-36.864-18.432-63.488c0-26.624 6.144-47.104 18.432-63.488s28.672-22.528 51.2-22.528zM2070.528 497.152h-63.488v172.032l6.144-8.192c-6.144-18.432-16.384-32.768-32.768-43.008s-34.816-14.336-55.296-14.336c-22.528 0-40.96 6.144-59.392 16.384-16.384 10.24-30.72 24.576-38.912 45.056s-14.336 43.008-14.336 69.632c0 26.624 4.096 49.152 14.336 69.632s22.528 34.816 38.912 47.104c16.384 10.24 36.864 16.384 57.344 16.384s40.96-6.144 55.296-16.384c16.384-10.24 26.624-24.576 32.768-43.008l-4.096 2.048 10.24 47.104h59.392c-2.048-12.288-2.048-24.576-4.096-34.816 0-12.288 0-24.576 0-34.816v-290.816zM1943.552 648.704c20.48 0 36.864 8.192 47.104 22.528 12.288 14.336 16.384 34.816 16.384 61.44s-6.144 47.104-16.384 61.44c-12.288 14.336-26.624 20.48-47.104 20.48s-36.864-8.192-49.152-22.528-18.432-34.816-18.432-61.44c0-26.624 6.144-47.104 18.432-59.392s28.672-22.528 49.152-22.528z" />
<glyph unicode="&#xe932;" glyph-name="math_log-a-bc" horiz-adv-x="2150" d="M1353.728 108.032v591.872h100.352v-282.624l-8.192 12.288c8.192 28.672 24.576 51.2 51.2 69.632 24.576 16.384 55.296 26.624 90.112 26.624 36.864 0 67.584-8.192 94.208-26.624 26.624-16.384 47.104-40.96 63.488-73.728 16.384-30.72 22.528-69.632 22.528-110.592s-8.192-79.872-22.528-112.64c-16.384-32.768-36.864-57.344-63.488-73.728-26.624-18.432-57.344-26.624-94.208-26.624-34.816 0-63.488 8.192-90.112 24.576-24.576 16.384-43.008 38.912-51.2 69.632l8.192 14.336v-102.4h-100.352zM1560.576 179.712c32.768 0 59.392 12.288 77.824 34.816 18.432 24.576 26.624 57.344 26.624 100.352 0 40.96-8.192 73.728-26.624 96.256s-43.008 34.816-77.824 34.816c-34.816 0-61.44-12.288-77.824-34.816s-28.672-55.296-28.672-98.304c0-43.008 8.192-75.776 26.624-98.304 18.432-24.576 45.056-34.816 79.872-34.816zM16.384 148.992v575.488h98.304v-575.488h-98.304zM399.36 144.896c-40.96 0-75.776 8.192-106.496 24.576s-53.248 40.96-69.632 71.68c-16.384 30.72-24.576 67.584-24.576 108.544s8.192 77.824 24.576 108.544c16.384 30.72 38.912 55.296 69.632 71.68s65.536 24.576 106.496 24.576c40.96 0 75.776-8.192 104.448-24.576 30.72-16.384 53.248-40.96 69.632-71.68s24.576-67.584 24.576-108.544c0-43.008-8.192-77.824-24.576-108.544s-38.912-53.248-69.632-71.68c-28.672-16.384-65.536-24.576-104.448-24.576zM399.36 218.624c32.768 0 57.344 10.24 73.728 32.768 18.432 22.528 26.624 53.248 26.624 96.256s-8.192 75.776-26.624 96.256c-18.432 22.528-43.008 32.768-73.728 32.768-32.768 0-57.344-10.24-75.776-32.768s-26.624-53.248-26.624-96.256c0-43.008 8.192-75.776 26.624-96.256s43.008-32.768 75.776-32.768zM862.208-25.088c-61.44 0-114.688 12.288-159.744 36.864l16.384 73.728c24.576-12.288 47.104-22.528 71.68-28.672 22.528-6.144 47.104-8.192 71.68-8.192 34.816 0 61.44 8.192 79.872 26.624 18.432 16.384 26.624 43.008 26.624 77.824v98.304h10.24c-6.144-16.384-16.384-32.768-28.672-45.056-12.288-14.336-28.672-24.576-47.104-32.768-22.528-8.192-43.008-12.288-65.536-12.288-34.816 0-65.536 8.192-92.16 24.576s-47.104 38.912-61.44 67.584c-14.336 28.672-22.528 63.488-22.528 104.448 0 38.912 8.192 73.728 22.528 104.448 14.336 28.672 34.816 53.248 61.44 69.632s57.344 24.576 92.16 24.576c34.816 0 63.488-8.192 88.064-24.576s40.96-38.912 51.2-67.584l-10.24-2.048v83.968h96.256v-380.928c0-61.44-16.384-108.544-51.2-139.264-32.768-34.816-81.92-51.2-149.504-51.2zM864.256 237.056c32.768 0 57.344 10.24 75.776 32.768 18.432 20.48 26.624 51.2 26.624 88.064s-8.192 67.584-26.624 88.064c-18.432 20.48-43.008 32.768-75.776 32.768s-59.392-10.24-77.824-32.768c-18.432-20.48-28.672-51.2-28.672-88.064s10.24-67.584 28.672-88.064c18.432-22.528 45.056-32.768 77.824-32.768zM1173.504-29.184c-20.48 0-36.864 4.096-53.248 14.336s-26.624 24.576-36.864 40.96c-8.192 18.432-12.288 38.912-12.288 63.488s4.096 45.056 12.288 63.488c8.192 18.432 20.48 32.768 36.864 43.008s32.768 16.384 53.248 16.384c18.432 0 32.768-4.096 47.104-12.288s24.576-20.48 28.672-34.816l-6.144-4.096v43.008h81.92v-231.424h-81.92v45.056h6.144c-6.144-14.336-14.336-24.576-28.672-34.816-12.288-8.192-28.672-12.288-47.104-12.288zM1200.128 32.256c14.336 0 24.576 4.096 32.768 14.336s12.288 24.576 12.288 43.008c0 20.48-4.096 34.816-12.288 45.056s-18.432 14.336-34.816 14.336c-14.336 0-26.624-6.144-34.816-16.384s-12.288-24.576-12.288-45.056c0-18.432 4.096-32.768 12.288-43.008s20.48-12.288 36.864-12.288zM1996.8 85.504c-43.008 0-77.824 10.24-108.544 30.72s-53.248 47.104-69.632 83.968c-16.384 36.864-24.576 79.872-24.576 129.024 0 51.2 8.192 94.208 24.576 131.072s40.96 67.584 71.68 88.064c30.72 20.48 67.584 30.72 110.592 30.72 28.672 0 55.296-6.144 81.92-16.384s49.152-24.576 65.536-45.056l-28.672-83.968c-16.384 16.384-34.816 28.672-55.296 36.864-18.432 8.192-38.912 12.288-57.344 12.288-34.816 0-63.488-12.288-83.968-38.912s-30.72-65.536-30.72-116.736c0-51.2 10.24-88.064 30.72-114.688s49.152-38.912 83.968-38.912c18.432 0 36.864 4.096 57.344 12.288 18.432 8.192 36.864 20.48 55.296 38.912l28.672-83.968c-18.432-18.432-40.96-32.768-67.584-43.008-24.576-8.192-53.248-12.288-83.968-12.288z" />
<glyph unicode="&#xe933;" glyph-name="math_log-a-c" horiz-adv-x="1843" d="M12.288 148.992v575.488h98.304v-575.488h-98.304zM393.216 144.896c-40.96 0-75.776 8.192-106.496 24.576s-53.248 40.96-69.632 71.68-24.576 67.584-24.576 108.544c0 40.96 8.192 77.824 24.576 108.544s38.912 55.296 69.632 71.68c30.72 16.384 65.536 24.576 106.496 24.576s75.776-8.192 104.448-24.576c30.72-16.384 53.248-40.96 69.632-71.68s24.576-67.584 24.576-108.544c0-43.008-8.192-77.824-24.576-108.544s-38.912-53.248-69.632-71.68c-28.672-16.384-63.488-24.576-104.448-24.576zM393.216 218.624c32.768 0 57.344 10.24 73.728 32.768 18.432 22.528 26.624 53.248 26.624 96.256s-8.192 75.776-26.624 96.256c-18.432 22.528-43.008 32.768-73.728 32.768-32.768 0-57.344-10.24-75.776-32.768s-26.624-53.248-26.624-96.256c0-43.008 8.192-75.776 26.624-96.256s43.008-32.768 75.776-32.768zM858.112-25.088c-61.44 0-114.688 12.288-159.744 36.864l16.384 73.728c24.576-12.288 47.104-22.528 71.68-28.672 22.528-6.144 47.104-8.192 71.68-8.192 34.816 0 61.44 8.192 79.872 26.624 18.432 16.384 26.624 43.008 26.624 77.824v98.304h10.24c-6.144-16.384-16.384-32.768-28.672-45.056-12.288-14.336-28.672-24.576-47.104-32.768s-38.912-12.288-61.44-12.288c-34.816 0-65.536 8.192-92.16 24.576s-47.104 38.912-61.44 67.584c-14.336 28.672-22.528 63.488-22.528 104.448 0 38.912 8.192 73.728 22.528 104.448 14.336 28.672 34.816 53.248 61.44 69.632s57.344 24.576 92.16 24.576c34.816 0 63.488-8.192 88.064-24.576s40.96-38.912 51.2-67.584l-14.336-4.096v83.968h96.256v-380.928c0-61.44-16.384-108.544-51.2-139.264-32.768-32.768-83.968-49.152-149.504-49.152zM858.112 237.056c32.768 0 57.344 10.24 75.776 32.768 18.432 20.48 26.624 51.2 26.624 88.064s-8.192 67.584-26.624 88.064c-18.432 20.48-43.008 32.768-75.776 32.768s-59.392-10.24-77.824-32.768c-18.432-20.48-28.672-51.2-28.672-88.064s10.24-67.584 28.672-88.064c20.48-22.528 45.056-32.768 77.824-32.768zM1204.224-20.992c-22.528 0-43.008 6.144-59.392 16.384-18.432 10.24-30.72 26.624-40.96 47.104s-14.336 45.056-14.336 71.68c0 28.672 4.096 51.2 14.336 73.728 10.24 20.48 24.576 36.864 40.96 49.152 18.432 12.288 36.864 18.432 59.392 18.432 20.48 0 38.912-4.096 53.248-14.336 16.384-10.24 26.624-22.528 32.768-38.912l-6.144-4.096v49.152h92.16v-264.192h-92.16v49.152h6.144c-6.144-16.384-16.384-28.672-32.768-38.912-14.336-10.24-32.768-14.336-53.248-14.336zM1232.896 48.64c16.384 0 28.672 6.144 38.912 16.384 8.192 12.288 14.336 28.672 14.336 49.152 0 22.528-4.096 38.912-14.336 51.2-8.192 12.288-22.528 16.384-38.912 16.384s-28.672-6.144-38.912-18.432-14.336-28.672-14.336-51.2c0-20.48 4.096-36.864 14.336-49.152 10.24-8.192 22.528-14.336 38.912-14.336zM1619.968 101.888c-49.152 0-90.112 12.288-124.928 34.816s-61.44 55.296-81.92 98.304c-18.432 43.008-28.672 92.16-28.672 149.504s10.24 108.544 28.672 151.552c20.48 43.008 47.104 77.824 83.968 100.352 36.864 24.576 77.824 36.864 126.976 36.864 32.768 0 63.488-6.144 96.256-18.432 30.72-12.288 57.344-28.672 75.776-51.2l-32.768-94.208c-20.48 18.432-40.96 32.768-63.488 43.008s-45.056 14.336-65.536 14.336c-40.96 0-71.68-14.336-96.256-45.056s-34.816-75.776-34.816-133.12c0-57.344 12.288-102.4 34.816-133.12s55.296-45.056 98.304-45.056c20.48 0 43.008 4.096 65.536 14.336s43.008 24.576 63.488 45.056l32.768-96.256c-20.48-22.528-47.104-38.912-77.824-51.2-34.816-14.336-67.584-20.48-100.352-20.48z" />
</font>
</defs>
</svg>
