<?xml version="1.0" encoding="utf-8"?>
<!-- Generator: Adobe Illustrator 22.1.0, SVG Export Plug-In . SVG Version: 6.00 Build 0)  -->
<svg version="1.1" id="Слой_1" xmlns="http://www.w3.org/2000/svg" xmlns:xlink="http://www.w3.org/1999/xlink" x="0px" y="0px"
	 viewBox="0 0 1024 346" style="enable-background:new 0 0 1024 346;" xml:space="preserve">
<style type="text/css">
	.st0{fill:#04073E;}
	.st1{fill:#022DBA;}
</style>
<g>
	<path class="st0" d="M53.1,124.4v66.4H145v46.6H53.1v91.5H7.1V77.8h150v46.6H53.1z"/>
	<path class="st0" d="M310.8,275.1h-92.2l-17.6,53.8H154l88.5-251.1h45.4l88.8,251.1h-48.2L310.8,275.1z M296.4,231l-31.5-96.1
		L233.4,231H296.4z"/>
	<path class="st0" d="M523.8,328.9L485.5,259h-2.3h-40v69.9h-45.9V77.8h85.9c17.6,0,32.8,3.7,45.8,11.1
		c12.9,7.4,22.9,17.9,29.9,31.6c7,13.6,10.5,29.8,10.5,48.4c0,18.7-3.5,34.7-10.6,48.2c-7.1,13.5-17.2,23.9-30.2,31l44.5,80.7H523.8
		z M512.2,136.5c-7.2-7.5-17.7-11.3-31.5-11.3h-37.4v87.5h37.4c13.8,0,24.3-3.8,31.5-11.5c7.2-7.7,10.8-18.4,10.8-32.3
		C522.9,154.8,519.3,144,512.2,136.5z"/>
	<path class="st0" d="M736.5,275.1h-92.2l-17.6,53.8h-47.1l88.5-251.1h45.4l88.8,251.1H754L736.5,275.1z M722,231l-31.5-96.1
		L659,231H722z"/>
	<path class="st0" d="M822.9,77.8h90.2c21.6,0,40.6,5.2,57.1,15.6c16.5,10.4,29.4,25.1,38.6,43.9c9.2,18.9,13.8,40.9,13.8,66
		c0,25.1-4.6,47.1-13.8,66c-9.2,18.9-22,33.5-38.6,43.9c-16.5,10.4-35.6,15.6-57.1,15.6h-90.2V77.8z M910.8,281.2
		c19.8,0,35.7-7,47.5-21c11.8-14,17.7-32.9,17.7-56.9c0-23.9-5.9-42.9-17.7-56.9c-11.8-14-27.6-21-47.5-21h-42v155.7H910.8z"/>
</g>
<path class="st0" d="M328,21H18c-6.6,0-12,5.4-12,12v3c0,6.6,5.4,12,12,12h310c6.6,0,12-5.4,12-12v-3C340,26.4,334.6,21,328,21z"/>
<path class="st1" d="M329,21H214c-6.6,0-12,5.4-12,12v3c0,6.6,5.4,12,12,12h115c6.6,0,12-5.4,12-12v-3C341,26.4,335.6,21,329,21z"/>
<g>
</g>
<g>
</g>
<g>
</g>
<g>
</g>
<g>
</g>
<g>
</g>
<g>
</g>
<g>
</g>
<g>
</g>
<g>
</g>
<g>
</g>
<g>
</g>
<g>
</g>
<g>
</g>
<g>
</g>
</svg>
